<?xml version="1.0" standalone="no"?>
<!DOCTYPE svg PUBLIC "-//W3C//DTD SVG 20010904//EN"
 "http://www.w3.org/TR/2001/REC-SVG-20010904/DTD/svg10.dtd">
<svg version="1.0" xmlns="http://www.w3.org/2000/svg"
 width="1080.000000pt" height="1080.000000pt" viewBox="0 0 1080.000000 1080.000000"
 preserveAspectRatio="xMidYMid meet">
<metadata>
Created by potrace 1.14, written by Peter Selinger 2001-2017
</metadata>
<g transform="translate(0.000000,1080.000000) scale(0.100000,-0.100000)"
fill="#000000" stroke="none">
<path d="M2011 8738 c-15 -91 -27 -163 -41 -255 -6 -40 -15 -101 -20 -135 -5
-35 -19 -126 -31 -203 -11 -77 -25 -167 -30 -200 -5 -33 -14 -91 -19 -130 -6
-38 -15 -98 -20 -132 -60 -389 -73 -483 -67 -490 4 -3 100 26 214 65 114 39
422 144 683 232 261 89 576 196 700 237 124 42 230 81 237 87 10 9 32 130 73
411 13 82 29 188 40 260 5 33 14 89 19 125 5 36 11 76 14 90 3 14 8 44 11 68
l6 42 -878 0 -879 0 -12 -72z"/>
<path d="M7721 8748 c-20 -117 -81 -530 -81 -554 0 -23 2 -23 103 -26 l102 -3
0 -115 0 -115 -103 -3 c-102 -3 -102 -3 -112 23 -6 15 -10 40 -10 57 0 51 -8
27 -20 -57 -6 -44 -15 -108 -20 -142 -20 -128 -30 -195 -39 -255 -5 -35 -14
-94 -20 -133 -6 -38 -20 -131 -31 -205 -12 -74 -32 -209 -46 -300 -14 -91 -29
-192 -34 -225 -5 -33 -14 -94 -20 -135 -6 -41 -16 -104 -21 -140 -5 -36 -14
-94 -20 -130 -5 -36 -14 -94 -20 -130 -5 -36 -14 -92 -18 -125 -11 -72 -67
-444 -81 -533 -5 -34 -14 -95 -20 -135 -6 -39 -15 -97 -20 -127 -5 -30 -14
-89 -20 -130 -72 -475 -184 -745 -398 -957 -225 -225 -525 -339 -1062 -405
-142 -18 -1061 -17 -1250 0 -768 71 -1101 225 -1229 565 -45 122 -53 196 -47
427 3 118 9 244 15 280 5 36 21 144 36 240 14 96 31 204 36 239 5 35 12 74 15
87 3 13 4 24 0 24 -6 0 -313 -103 -716 -240 -162 -55 -396 -134 -520 -175
-124 -42 -233 -80 -242 -85 -10 -6 -26 -10 -36 -10 -10 0 -22 -4 -27 -8 -6 -5
-71 -28 -145 -52 -74 -24 -141 -49 -149 -56 -21 -19 -55 -368 -55 -574 -1
-357 75 -755 193 -1014 17 -36 31 -68 31 -70 0 -10 107 -188 148 -246 51 -72
207 -256 227 -268 8 -4 35 -27 62 -52 139 -130 426 -309 613 -384 25 -10 59
-24 75 -31 136 -59 388 -136 610 -185 133 -30 145 -32 313 -59 324 -54 842
-92 1247 -91 248 1 713 29 895 55 175 24 342 53 445 75 108 24 307 74 360 91
33 11 76 24 95 30 137 41 296 107 495 205 179 88 200 100 358 206 392 262 705
605 933 1023 70 129 184 375 184 399 0 7 3 16 7 19 21 22 122 347 163 527 55
247 69 322 135 775 19 132 40 268 45 303 10 59 15 98 40 265 6 39 15 97 20
127 5 30 14 88 20 127 25 169 31 206 40 266 5 34 26 170 45 302 19 132 39 265
45 295 5 30 14 91 20 135 7 44 15 103 20 130 5 28 13 86 20 130 6 44 15 105
20 135 19 112 31 191 65 425 19 132 40 268 45 303 11 65 23 145 40 265 6 39
15 94 20 120 6 27 10 53 10 58 0 5 -350 9 -884 9 l-884 0 -11 -62z m467 -355
l-3 -118 -113 -3 -113 -3 3 97 3 96 35 13 c55 20 112 32 153 34 l38 1 -3 -117z
m247 99 c97 -22 95 -20 95 -127 l0 -95 -115 0 -115 0 0 121 0 122 48 -6 c26
-4 65 -10 87 -15z m-590 -158 l0 -59 -72 -3 c-40 -2 -73 1 -73 6 0 19 119 123
135 118 6 -1 10 -29 10 -62z m897 -2 c26 -24 48 -49 48 -54 0 -5 -33 -8 -72
-6 l-73 3 -3 49 c-4 67 2 80 30 65 12 -6 43 -32 70 -57z m-554 -279 l-3 -118
-112 -3 -113 -3 0 121 0 120 115 0 116 0 -3 -117z m342 -3 l0 -120 -115 0
-115 0 0 120 0 120 115 0 115 0 0 -120z m330 101 c13 -25 13 -161 0 -196 -10
-26 -10 -26 -112 -23 l-103 3 -3 118 -3 117 105 0 c94 0 106 -2 116 -19z
m-1010 -380 c0 -33 -4 -62 -9 -65 -11 -7 -117 77 -131 104 -10 19 -7 20 65 20
l75 0 0 -59z m340 -61 l0 -120 -35 0 c-19 0 -43 4 -53 9 -9 5 -44 15 -77 23
l-60 14 -3 97 -3 97 116 0 115 0 0 -120z m338 23 l-3 -97 -60 -14 c-33 -8 -68
-18 -77 -23 -10 -5 -34 -9 -53 -9 l-35 0 0 120 0 120 115 0 116 0 -3 -97z
m252 77 c-14 -27 -120 -111 -131 -104 -5 3 -9 32 -9 65 l0 59 75 0 c72 0 75
-1 65 -20z m-2480 -4289 c0 -9 -29 -48 -71 -96 -15 -16 -65 -75 -111 -130
l-84 -100 -199 -3 c-112 -1 -204 -7 -210 -12 -7 -6 -20 -61 -29 -123 -9 -61
-21 -134 -26 -162 -5 -27 -11 -68 -14 -90 -3 -22 -10 -67 -16 -100 -25 -141
-37 -219 -59 -380 -17 -126 2 -115 -192 -115 l-169 0 0 28 c0 15 7 70 16 122
18 110 42 275 63 420 5 36 14 92 19 125 6 33 15 89 21 125 6 36 14 80 17 98
12 61 9 62 -268 62 -148 0 -248 4 -246 9 2 5 64 82 138 170 l135 160 643 0
c355 1 642 -3 642 -8z m-1892 -108 c-2 -30 -7 -38 -23 -38 -26 0 -31 32 -8 55
27 28 35 24 31 -17z m87 -22 c-7 -24 -33 -28 -41 -6 -4 8 -3 26 0 40 6 25 7
25 27 6 14 -13 19 -26 14 -40z m52 -13 c-3 -8 -6 -5 -6 6 -1 11 2 17 5 13 3
-3 4 -12 1 -19z m-229 -76 c3 -28 0 -32 -22 -32 -20 0 -26 5 -26 23 0 26 19
49 35 44 5 -2 11 -18 13 -35z m76 32 c10 -4 16 -18 16 -35 0 -24 -4 -29 -25
-29 -21 0 -25 5 -25 28 0 39 7 46 34 36z m100 -10 c13 -35 7 -54 -19 -54 -21
0 -25 5 -25 28 0 16 3 32 7 35 11 12 31 7 37 -9z m87 6 c5 0 9 -13 9 -30 0
-25 -4 -30 -24 -30 -31 0 -40 14 -32 46 5 18 12 24 22 20 9 -3 20 -6 25 -6z
m-173 -133 c2 -18 -1 -27 -11 -27 -21 0 -40 27 -33 46 10 25 41 12 44 -19z
m88 18 c7 -18 -12 -45 -32 -45 -14 0 -20 41 -7 53 11 12 33 7 39 -8z m-179
-111 c15 -11 49 -26 75 -33 55 -16 101 -4 162 40 22 16 41 27 43 25 2 -2 -1
-23 -6 -47 -5 -24 -15 -82 -22 -129 -6 -47 -16 -112 -21 -145 -5 -33 -12 -87
-17 -120 -5 -33 -14 -91 -21 -130 -6 -38 -16 -95 -21 -125 -5 -30 -13 -84 -18
-120 -18 -121 1 -110 -192 -110 -154 0 -169 2 -169 18 0 9 7 62 16 117 8 55
20 132 26 170 15 108 25 175 36 240 34 196 48 290 58 374 l7 53 18 -29 c10
-16 31 -38 46 -49z"/>
<path d="M3315 7000 c-261 -90 -1088 -371 -1386 -471 l-266 -90 -12 -77 c-7
-42 -16 -102 -21 -132 -5 -30 -14 -89 -20 -130 -6 -41 -15 -100 -20 -130 -25
-150 -33 -220 -27 -227 7 -6 113 25 162 47 11 5 130 46 265 90 135 44 254 85
265 90 11 5 130 46 265 90 135 44 254 85 265 90 11 5 130 46 265 90 135 44
254 84 265 89 97 40 89 30 103 127 8 49 19 127 27 174 7 47 18 121 25 165 6
44 16 103 20 130 14 79 16 128 5 131 -5 1 -86 -24 -180 -56z"/>
</g>
</svg>
