<?xml version="1.0" standalone="no"?>
<!DOCTYPE svg PUBLIC "-//W3C//DTD SVG 20010904//EN"
 "http://www.w3.org/TR/2001/REC-SVG-20010904/DTD/svg10.dtd">
<svg version="1.0" xmlns="http://www.w3.org/2000/svg"
 width="1080.000000pt" height="1080.000000pt" viewBox="0 0 1080.000000 1080.000000"
 preserveAspectRatio="xMidYMid meet">
<metadata>
Created by potrace 1.14, written by Peter Selinger 2001-2017
</metadata>
<g transform="translate(0.000000,1080.000000) scale(0.100000,-0.100000)"
fill="#000000" stroke="none">
<path d="M2115 8238 c-6 -10 -11 -31 -10 -48 1 -16 -2 -27 -7 -24 -4 3 -8 1
-8 -5 0 -5 6 -12 13 -14 9 -4 9 -6 0 -6 -7 -1 -10 -8 -7 -16 4 -8 2 -15 -3
-15 -5 0 -8 -15 -7 -32 1 -18 -3 -36 -9 -40 -9 -6 -8 -8 1 -8 8 0 10 -5 6 -12
-5 -7 -9 -19 -10 -28 -1 -8 -5 -46 -9 -85 -4 -38 -8 -76 -8 -83 0 -7 -7 -10
-14 -8 -9 4 -11 2 -6 -7 12 -19 13 -39 1 -60 -7 -15 -7 -18 2 -12 9 5 9 3 2
-11 -5 -11 -7 -25 -4 -33 2 -8 1 -11 -4 -8 -5 3 -8 -9 -8 -26 1 -18 -4 -38
-10 -46 -8 -11 -8 -13 2 -7 6 4 12 3 12 -3 0 -5 -5 -13 -10 -16 -6 -3 -8 -17
-6 -30 3 -14 1 -27 -4 -30 -5 -3 -7 -12 -4 -20 3 -8 2 -20 -2 -27 -5 -7 -7
-27 -5 -45 2 -22 -2 -33 -11 -33 -10 0 -9 -3 2 -10 8 -5 11 -10 5 -10 -5 0
-11 -15 -12 -33 -2 -40 -7 -64 -16 -73 -4 -4 -1 -14 6 -22 9 -12 9 -16 0 -19
-7 -2 -9 -11 -6 -19 3 -8 -1 -14 -8 -14 -9 0 -10 -3 -4 -8 12 -9 19 -36 7 -28
-5 3 -9 -12 -9 -32 -1 -63 -7 -97 -18 -105 -7 -6 -6 -10 2 -14 9 -3 10 -10 3
-22 -5 -10 -10 -36 -11 -57 -1 -21 -7 -47 -12 -58 -7 -14 -6 -17 5 -10 10 6
11 5 1 -7 -7 -9 -14 -37 -14 -62 -1 -25 -5 -45 -8 -43 -3 2 -6 -16 -5 -40 0
-24 -2 -44 -6 -44 -3 0 -5 -17 -5 -37 1 -21 -1 -42 -4 -48 -3 -5 -6 -16 -7
-25 -1 -8 -3 -21 -5 -29 -2 -7 4 -15 14 -16 9 -2 17 1 17 6 0 6 4 8 9 5 5 -4
22 -1 37 4 l28 11 -19 -22 c-11 -12 -15 -19 -9 -16 15 9 27 -20 12 -29 -7 -5
-8 -2 -3 6 5 9 4 11 -3 6 -8 -5 -8 -15 -2 -32 7 -17 7 -23 0 -19 -15 9 -12 -7
5 -29 14 -18 20 -15 15 9 -1 6 4 5 11 -2 9 -9 20 -9 47 2 19 8 38 12 43 9 5
-3 9 -1 9 5 0 5 11 8 25 5 19 -3 25 0 25 13 0 15 2 16 10 3 8 -12 10 -12 10
-1 0 8 7 11 20 8 11 -3 23 -1 26 4 3 5 14 9 25 9 14 0 18 4 13 13 -5 7 0 6 11
-3 10 -8 16 -10 12 -3 -5 7 0 12 13 12 11 1 29 1 40 2 11 0 22 4 25 10 4 5 19
9 35 9 16 0 31 4 34 9 3 5 26 12 51 15 25 4 45 13 45 19 0 7 4 6 10 -3 7 -11
10 -11 10 -2 0 7 6 12 13 10 6 -1 21 2 32 8 11 5 29 9 40 9 11 0 23 3 26 8 3
4 16 9 27 10 12 1 22 8 23 17 0 10 3 9 9 -5 5 -11 9 -14 9 -7 1 7 6 10 11 7 6
-3 10 -1 10 5 0 6 4 9 8 6 5 -3 29 1 54 9 26 7 49 11 52 8 3 -4 6 -1 6 5 0 7
12 12 26 12 14 0 23 4 19 10 -4 7 3 7 19 0 28 -10 33 -2 14 20 -11 12 -10 12
3 2 12 -9 24 -10 43 -2 21 8 26 7 21 -3 -4 -6 1 -3 9 7 12 15 16 16 16 5 0
-12 2 -12 10 1 5 8 10 11 10 6 0 -5 7 -3 15 4 8 6 19 9 25 5 6 -3 23 0 38 8
16 7 38 13 50 12 11 -1 19 2 16 7 -5 8 10 12 35 9 7 -2 10 2 7 7 -3 5 6 7 19
4 14 -2 25 0 25 6 0 5 8 9 18 8 10 0 16 5 14 14 -3 11 1 10 16 -3 15 -14 22
-15 28 -6 5 8 3 10 -6 4 -9 -5 -11 -4 -6 4 4 6 18 9 31 7 14 -3 26 1 29 10 3
8 11 14 18 14 9 0 8 -3 -2 -10 -9 -6 -10 -10 -3 -10 6 0 14 4 17 9 3 4 19 11
36 15 18 3 29 10 25 16 -3 5 0 10 7 10 9 0 9 3 -2 10 -8 5 -10 10 -4 10 12 0
13 4 15 70 1 25 7 48 13 52 7 5 6 8 -3 8 -11 0 -11 3 0 17 12 15 12 16 -1 8
-13 -7 -13 -6 -2 7 7 9 12 20 11 24 -4 25 2 45 13 38 7 -5 8 -3 3 7 -12 18
-14 49 -4 49 5 0 5 7 2 17 -5 12 -3 14 7 8 10 -6 10 -4 3 10 -12 21 -5 55 11
55 6 0 4 5 -4 10 -13 9 -13 11 0 20 13 8 13 10 1 10 -12 0 -12 3 -3 12 16 16
16 41 0 32 -7 -4 -5 1 4 12 13 14 14 23 6 38 -8 14 -7 17 1 12 7 -5 10 3 7 24
-2 17 1 33 7 37 6 4 7 1 2 -7 -6 -9 -4 -11 4 -5 9 5 10 10 2 18 -7 7 -7 16 0
29 6 12 6 18 -1 18 -5 0 -10 -5 -10 -12 0 -6 -3 -8 -7 -4 -5 4 1 14 11 22 11
8 17 14 14 14 -4 0 -3 13 2 30 5 18 5 32 -1 36 -7 4 -6 10 0 18 6 7 12 28 14
47 2 20 7 41 11 47 4 7 1 12 -6 12 -10 0 -10 2 0 9 8 4 14 12 14 16 0 4 -6 12
-14 16 -10 7 -10 9 2 9 9 0 16 9 16 20 0 11 -4 20 -9 20 -5 0 -1 8 9 17 15 16
15 17 -2 23 -15 6 -16 7 -2 13 11 4 15 13 11 26 -3 13 -1 21 8 21 10 0 10 3 1
12 -15 15 -16 32 -2 23 6 -3 10 1 10 10 0 9 -4 14 -8 11 -5 -3 -9 1 -9 9 0 8
4 12 8 9 4 -2 10 0 14 6 3 5 1 10 -6 10 -8 0 -8 4 1 15 10 12 10 15 -1 15 -11
0 -11 2 -2 8 7 5 15 29 16 54 2 25 7 49 10 54 3 6 -3 11 -14 11 -10 1 -19 -3
-19 -8 0 -6 5 -7 12 -3 7 5 8 3 4 -5 -6 -9 -12 -9 -25 3 -10 9 -20 14 -22 12
-2 -2 -10 2 -17 10 -10 11 -10 14 0 14 9 0 9 3 -2 10 -8 5 -10 10 -5 10 6 0
11 17 10 38 0 31 -3 37 -23 38 -12 1 -25 -3 -28 -8 -3 -4 -11 -5 -17 -1 -6 4
-322 7 -700 7 -645 1 -690 0 -702 -16z m1460 -558 c3 -6 -1 -7 -9 -4 -18 7
-21 14 -7 14 6 0 13 -4 16 -10z m-684 -937 c13 -16 12 -17 -3 -4 -10 7 -18 15
-18 17 0 8 8 3 21 -13z m209 -19 c0 -8 -19 -13 -24 -6 -3 5 1 9 9 9 8 0 15 -2
15 -3z"/>
<path d="M6893 8240 c-2 -8 -3 -19 -3 -24 1 -5 -4 -13 -12 -17 -11 -7 -11 -9
1 -9 10 0 11 -3 2 -14 -9 -10 -9 -16 -1 -21 8 -5 8 -11 1 -19 -10 -11 -18 -64
-20 -124 -1 -13 -5 -21 -9 -18 -5 3 -7 -8 -4 -23 2 -16 -1 -39 -8 -51 -10 -18
-9 -21 1 -15 8 6 10 4 3 -6 -4 -8 -9 -25 -11 -39 -1 -14 -4 -42 -6 -62 -2 -21
-6 -41 -10 -44 -12 -12 -8 -26 6 -18 9 5 9 4 0 -6 -6 -7 -9 -19 -6 -26 3 -8 1
-14 -5 -14 -5 0 -8 -13 -6 -30 2 -16 -1 -32 -7 -36 -8 -4 -7 -9 2 -15 12 -8
12 -11 -1 -18 -8 -6 -12 -13 -8 -16 3 -4 2 -20 -2 -36 -5 -17 -5 -31 1 -35 5
-3 3 -11 -5 -19 -9 -9 -13 -31 -11 -60 1 -25 -2 -45 -8 -45 -5 0 -3 -8 4 -17
10 -11 10 -14 2 -9 -14 8 -14 6 -16 -61 0 -24 -4 -43 -7 -43 -4 0 -6 -10 -5
-22 1 -13 -2 -29 -8 -35 -6 -9 -5 -13 4 -13 10 0 10 -3 1 -12 -7 -7 -12 -29
-12 -50 0 -24 -5 -38 -12 -38 -9 0 -9 -3 -2 -8 11 -8 14 -52 3 -52 -4 0 -6
-11 -4 -25 1 -14 -2 -28 -7 -31 -6 -4 -5 -10 3 -15 9 -6 10 -9 2 -9 -6 0 -11
-8 -11 -17 1 -10 -2 -31 -6 -46 -5 -22 -4 -27 6 -21 10 6 9 3 -1 -9 -7 -9 -14
-37 -16 -61 -1 -25 -7 -51 -14 -59 -8 -11 -9 -17 -1 -22 6 -3 7 -12 3 -18 -4
-7 -6 -23 -4 -36 2 -17 -1 -21 -11 -15 -11 6 -11 5 0 -8 7 -9 9 -19 4 -22 -5
-3 -8 -23 -8 -46 1 -22 -1 -40 -5 -40 -3 0 -5 -14 -4 -30 1 -17 -2 -33 -6 -36
-4 -2 -6 -16 -3 -30 3 -16 1 -23 -6 -19 -5 3 -10 1 -10 -4 0 -6 6 -11 13 -11
8 0 8 -3 2 -8 -6 -4 -10 -18 -10 -32 0 -14 -4 -28 -10 -32 -6 -5 -5 -8 3 -8 9
0 10 -5 3 -19 -6 -10 -11 -35 -13 -55 -1 -20 -7 -36 -13 -36 -5 0 -4 -4 4 -9
8 -5 9 -11 3 -15 -6 -4 -9 -15 -7 -26 2 -11 -1 -22 -7 -26 -6 -4 -5 -10 3 -15
9 -6 10 -9 2 -9 -7 0 -10 -10 -7 -26 3 -17 1 -23 -7 -19 -8 6 -8 2 0 -13 6
-12 7 -22 1 -24 -5 -2 -10 -25 -11 -53 -1 -27 -6 -58 -12 -69 -7 -14 -6 -17 5
-10 10 6 11 5 2 -7 -5 -8 -12 -32 -14 -54 -5 -69 -6 -74 -12 -81 -4 -3 -4 -12
-2 -19 3 -7 1 -23 -6 -34 -8 -16 -8 -21 2 -21 9 0 9 -3 2 -8 -6 -4 -11 -19
-11 -34 -1 -16 -2 -29 -3 -30 -2 -3 -6 -29 -11 -78 -2 -19 -8 -38 -14 -42 -6
-5 -5 -8 4 -8 10 0 11 -3 2 -13 -6 -8 -9 -23 -6 -35 2 -12 -1 -22 -7 -22 -7 0
-6 -6 2 -15 10 -12 10 -15 0 -15 -7 0 -10 -6 -7 -14 3 -8 1 -17 -6 -20 -9 -3
-8 -5 1 -5 10 -1 10 -6 2 -21 -8 -15 -8 -20 2 -20 10 0 10 -2 -1 -9 -7 -5 -10
-14 -7 -20 4 -6 2 -11 -3 -11 -6 0 -10 -6 -9 -12 4 -16 -25 -13 -152 13 -252
53 -532 162 -608 236 -7 7 -18 13 -23 13 -5 0 -9 5 -9 11 0 5 4 8 8 5 5 -3 9
2 9 10 0 13 -2 13 -15 0 -13 -12 -19 -10 -48 20 -19 18 -35 37 -35 41 0 5 -10
13 -22 20 -12 7 -17 13 -12 13 6 0 6 3 -1 8 -16 11 -67 82 -60 83 3 1 10 2 15
3 31 4 15 35 -21 42 -5 1 -11 2 -14 3 -4 0 0 9 7 18 12 15 12 16 -3 10 -24 -9
-23 0 1 13 17 8 19 7 16 -9 -2 -11 3 -22 10 -25 10 -3 12 0 8 12 -6 15 -5 16
13 2 17 -14 18 -14 6 2 -7 9 -9 18 -5 20 4 3 3 3 -4 2 -7 -2 -15 1 -18 6 -3 5
-15 7 -26 5 -18 -4 -19 -2 -7 12 11 15 11 16 -7 10 -19 -7 -19 -7 -1 8 19 14
41 11 31 -5 -3 -4 2 -10 10 -13 9 -4 12 -1 8 9 -3 7 0 14 5 14 6 0 10 9 9 20
-1 11 -5 20 -10 20 -5 0 -7 -7 -4 -15 4 -8 2 -17 -3 -20 -6 -4 -10 0 -10 9 0
22 11 46 19 42 11 -7 36 12 27 21 -5 4 -11 2 -13 -5 -3 -6 -9 -9 -15 -6 -5 4
-3 13 7 24 13 14 14 23 6 38 -15 28 13 66 38 52 15 -8 18 -6 16 13 -3 31 -3
31 -20 17 -25 -21 -16 3 15 40 17 19 30 39 30 45 0 5 -8 -2 -18 -18 -10 -15
-22 -24 -27 -20 -4 5 -5 3 -2 -3 4 -7 0 -17 -9 -24 -8 -7 -13 -19 -10 -26 3
-7 1 -16 -4 -19 -6 -4 -11 0 -11 7 -1 7 -2 20 -3 28 0 8 -7 14 -13 12 -7 -1
-13 1 -13 5 0 9 39 76 49 83 3 3 18 23 32 45 14 22 62 76 105 119 72 73 75 76
29 43 -126 -90 -286 -259 -354 -376 -38 -63 -81 -187 -81 -230 0 -18 -5 -31
-12 -31 -8 0 -9 -3 -3 -8 6 -4 10 -20 10 -37 0 -16 3 -41 7 -54 6 -15 4 -29
-4 -39 -9 -11 -9 -14 -1 -9 8 5 16 -7 24 -35 7 -24 21 -54 31 -67 10 -13 18
-32 18 -43 0 -11 4 -17 9 -14 5 3 12 -1 15 -10 8 -22 8 -26 -3 -19 -5 3 -12 1
-16 -4 -3 -6 3 -8 14 -6 28 5 72 -31 64 -52 -5 -12 -2 -15 9 -11 14 6 50 -25
54 -44 1 -5 2 -11 3 -15 1 -5 6 -1 12 7 9 12 10 12 5 -4 -4 -12 -2 -17 7 -13
14 5 51 -18 53 -33 3 -23 5 -24 14 -10 7 11 10 11 10 2 0 -7 4 -11 9 -8 15 9
31 -18 21 -34 -7 -11 -10 -12 -10 -2 0 7 -5 10 -12 6 -7 -5 -8 -2 -3 7 5 8 5
11 0 7 -4 -4 -14 -3 -22 3 -8 7 -13 8 -13 1 0 -5 7 -12 15 -16 16 -6 16 -26 0
-39 -6 -5 -4 -7 5 -4 8 2 14 10 12 16 -1 7 7 10 23 7 14 -3 24 0 22 6 -1 6 5
13 13 15 13 4 13 3 0 -6 -8 -6 -12 -11 -7 -12 24 -5 33 -4 40 6 5 6 6 2 3 -9
-5 -13 -2 -17 9 -13 8 4 17 2 20 -4 4 -5 10 -7 15 -4 18 11 42 -43 42 -95 -1
-20 1 -22 7 -7 4 10 10 18 14 18 4 -1 7 1 7 4 0 27 -1 29 -10 15 -8 -13 -10
-13 -10 1 0 11 10 16 35 16 21 0 31 -4 23 -8 -6 -4 -16 -5 -22 -2 -5 4 -7 -1
-3 -12 4 -9 2 -24 -4 -32 -15 -17 -5 -27 30 -29 21 -1 27 4 29 20 1 13 -2 16
-6 9 -6 -9 -11 -7 -19 7 -10 15 -9 20 5 26 29 12 41 13 39 1 -1 -7 3 -11 10
-10 7 2 10 -4 7 -12 -4 -8 -9 -13 -13 -11 -4 3 -8 -4 -8 -15 -1 -10 3 -19 8
-19 6 0 8 -4 5 -8 -3 -5 1 -9 8 -9 7 0 13 6 13 13 0 7 -4 11 -8 8 -4 -2 -11 1
-15 7 -5 9 1 10 20 5 18 -4 25 -3 21 3 -3 7 0 8 10 5 11 -5 14 -2 9 10 -5 12
-11 13 -27 5 -21 -10 -21 -10 -3 5 20 16 36 10 39 -15 4 -25 17 -38 32 -32 13
5 20 -7 16 -29 0 -5 7 -8 18 -8 10 0 24 -7 32 -16 11 -14 15 -13 31 8 9 13 18
19 18 15 0 -4 10 -3 21 4 15 8 19 8 15 0 -4 -6 -2 -11 3 -11 6 0 11 -4 11 -8
0 -5 -7 -9 -15 -9 -8 0 -12 4 -9 9 3 4 0 8 -5 8 -6 0 -11 -6 -11 -12 0 -9 -4
-8 -10 2 -5 8 -10 11 -10 5 0 -5 5 -17 10 -25 7 -11 10 -11 10 -2 0 7 5 10 10
7 7 -4 6 -14 -1 -28 -9 -18 -6 -16 14 5 23 27 48 28 26 1 -9 -9 -8 -13 0 -13
6 0 11 4 11 9 0 5 9 13 20 16 11 4 18 11 14 16 -4 6 -10 6 -18 0 -7 -6 -16 -8
-19 -4 -13 13 -7 21 18 21 14 0 25 -4 25 -9 0 -5 5 -9 11 -9 5 0 7 5 4 10 -4
6 5 5 20 -2 22 -10 28 -9 36 3 8 10 9 8 4 -10 -8 -25 0 -24 40 8 20 16 20 16
1 -6 -11 -13 -14 -23 -8 -23 6 0 14 5 17 10 4 6 13 7 23 1 9 -5 22 -9 27 -10
6 0 10 -11 10 -24 1 -20 -3 -23 -27 -21 -15 2 -28 -1 -28 -7 0 -6 4 -8 9 -5 5
4 12 0 14 -6 4 -10 6 -10 6 -1 1 7 7 10 14 7 14 -5 11 -80 -5 -90 -5 -3 -4
-11 3 -20 6 -8 7 -14 2 -14 -5 0 -10 -14 -11 -31 -3 -44 -6 -53 -17 -61 -6 -5
-5 -8 4 -8 10 0 11 -3 2 -14 -6 -8 -11 -18 -10 -22 1 -5 0 -11 -1 -14 -3 -10
-11 -45 -12 -57 -1 -7 -5 -13 -9 -13 -4 0 -6 -9 -4 -20 2 -11 -1 -20 -7 -20
-5 0 -8 -7 -4 -15 3 -8 0 -15 -6 -15 -6 0 -8 -3 -5 -7 4 -3 1 -13 -6 -21 -10
-13 -9 -14 3 -7 9 5 8 0 -4 -13 -11 -12 -16 -22 -11 -22 4 0 2 -6 -4 -13 -6
-8 -8 -17 -4 -20 3 -4 1 -7 -6 -7 -7 0 -10 -4 -6 -9 3 -5 0 -15 -7 -23 -7 -7
-15 -22 -16 -33 -2 -11 -11 -28 -19 -37 -8 -9 -12 -22 -8 -28 3 -6 1 -9 -7 -8
-7 2 -12 -3 -11 -9 2 -7 -2 -13 -7 -13 -6 0 -10 -5 -10 -11 0 -6 -7 -17 -15
-26 -8 -8 -13 -19 -10 -24 4 -5 -1 -9 -9 -9 -9 0 -15 -3 -13 -8 1 -4 -8 -18
-20 -32 -13 -13 -23 -27 -23 -32 0 -4 -7 -8 -15 -8 -8 0 -14 -3 -14 -7 4 -22
-3 -32 -16 -27 -9 4 -15 0 -15 -10 0 -9 -4 -16 -8 -16 -5 0 -27 -17 -50 -38
-23 -20 -47 -38 -54 -40 -7 -2 -14 -8 -16 -13 -2 -5 -10 -9 -18 -9 -8 0 -14
-4 -14 -9 0 -5 -13 -14 -30 -20 -16 -5 -30 -15 -30 -20 0 -6 -7 -8 -15 -5 -8
4 -15 1 -15 -6 0 -6 -4 -8 -10 -5 -5 3 -10 1 -10 -5 0 -6 -4 -9 -9 -5 -5 3
-17 -2 -25 -11 -12 -11 -16 -12 -16 -2 0 10 -2 10 -8 0 -5 -7 -18 -14 -30 -17
-11 -2 -30 -9 -42 -15 -11 -6 -25 -8 -30 -5 -6 3 -10 1 -10 -5 0 -7 -6 -10
-12 -7 -7 2 -19 -3 -26 -12 -8 -9 -11 -10 -7 -3 3 6 1 12 -4 12 -6 0 -11 -4
-11 -9 0 -4 -10 -8 -22 -7 -13 1 -25 -2 -28 -5 -3 -4 -21 -10 -40 -12 -19 -3
-35 -6 -35 -7 0 -3 -71 -11 -97 -11 -10 0 -18 -5 -18 -11 0 -7 -5 -6 -14 1 -9
7 -17 8 -20 2 -3 -5 -17 -8 -31 -6 -14 1 -25 -1 -25 -4 0 -3 -19 -5 -42 -5
-24 1 -48 -3 -55 -8 -7 -5 -14 -5 -18 2 -3 6 -11 8 -16 5 -20 -13 -53 -14 -68
-2 -12 9 -13 9 -7 0 8 -15 -4 -15 -337 -14 -114 0 -217 3 -228 6 -11 4 -19 2
-19 -5 0 -6 -5 -8 -12 -3 -7 4 -22 6 -33 5 -17 -2 -17 -1 -5 7 8 6 10 11 4 11
-6 0 -14 -3 -18 -7 -10 -11 -46 -11 -46 0 0 5 -6 4 -14 -2 -11 -9 -15 -9 -19
1 -4 11 -6 11 -6 0 -1 -9 -6 -10 -18 -4 -10 5 -33 8 -51 6 -18 -1 -30 1 -28 4
2 4 -13 6 -34 4 -21 -2 -41 1 -45 8 -5 8 -10 8 -20 0 -10 -8 -15 -8 -20 0 -5
8 -11 8 -21 -1 -8 -6 -14 -7 -14 -2 0 8 -59 16 -117 15 -13 0 -23 4 -23 8 0 4
-8 7 -17 7 -59 0 -74 4 -67 16 5 8 2 8 -9 -2 -10 -7 -17 -9 -17 -3 0 6 -11 9
-25 7 -14 -1 -28 2 -31 7 -3 5 -12 7 -20 4 -8 -3 -14 -2 -14 2 0 7 -16 11 -57
14 -7 1 -13 5 -13 10 0 4 -9 8 -19 8 -11 0 -22 6 -24 13 -4 9 -6 9 -6 -1 -1
-9 -7 -8 -26 4 -14 9 -25 13 -25 9 0 -5 -9 0 -19 9 -11 10 -25 15 -30 11 -6
-3 -11 -1 -11 4 0 6 -5 11 -11 11 -7 0 -18 8 -26 18 -8 9 -12 12 -9 5 4 -7 -4
-6 -24 3 -16 9 -30 18 -30 20 0 3 5 2 12 -2 7 -4 8 -3 4 4 -4 7 -15 12 -24 12
-10 0 -24 9 -32 20 -8 11 -20 20 -27 20 -6 0 -20 13 -30 30 -9 16 -21 30 -25
30 -4 0 -8 7 -8 15 0 8 -4 15 -10 15 -5 0 -10 9 -10 20 0 11 -4 20 -8 20 -5 0
-9 6 -10 13 0 6 -3 23 -7 37 -9 33 -13 60 -14 88 -1 16 -5 21 -13 16 -9 -5 -9
-2 1 9 11 14 11 17 0 17 -11 0 -11 2 1 10 11 7 11 10 2 10 -9 0 -10 5 -2 19 7
14 7 22 0 26 -8 5 -7 12 2 23 11 13 11 14 -1 7 -11 -6 -13 -4 -8 8 3 9 1 18
-6 21 -8 3 -8 5 2 5 11 1 11 4 0 18 -12 14 -12 15 0 9 10 -7 12 -3 6 13 -4 14
-2 21 6 21 8 0 6 5 -5 13 -16 12 -16 14 -2 26 17 15 12 35 -7 25 -7 -3 -5 0 3
8 18 16 24 38 10 38 -7 0 -7 6 -1 18 7 13 6 23 -2 32 -9 10 -9 11 1 6 7 -5 12
-1 12 9 0 10 -5 13 -12 9 -7 -4 -6 1 3 12 17 21 14 58 -3 48 -7 -4 -8 -2 -4 5
4 6 12 9 17 6 13 -9 11 9 -3 24 -9 10 -9 12 -1 7 6 -3 14 -2 18 4 3 5 1 10 -5
10 -6 0 -4 12 6 31 8 17 11 28 4 24 -7 -4 -9 1 -5 17 3 12 7 33 8 46 0 12 5
22 10 22 5 0 3 8 -4 17 -12 14 -12 16 0 8 11 -6 13 -4 8 8 -3 9 -1 18 6 21 9
3 8 5 -1 5 -9 1 -10 6 -3 20 6 10 8 21 5 24 -3 3 -1 14 4 24 6 11 7 25 2 33
-10 16 -2 42 11 34 5 -3 6 2 3 10 -6 17 -25 17 -36 1 -5 -6 -8 -5 -8 3 0 10
-4 9 -16 -2 -19 -19 -40 -11 -24 9 8 9 8 15 0 20 -6 4 -7 13 -2 23 5 9 8 26 8
37 -1 11 4 23 9 27 6 5 4 8 -5 8 -13 0 -13 1 0 10 9 6 10 10 3 10 -6 0 -19 -7
-27 -16 -10 -9 -16 -11 -16 -4 0 7 -6 5 -16 -4 -19 -19 -28 -21 -18 -3 6 9 4
9 -7 1 -8 -6 -22 -10 -32 -9 -9 2 -15 -1 -11 -6 3 -5 -6 -9 -20 -9 -14 0 -28
-5 -32 -11 -4 -8 -9 -7 -15 2 -7 11 -9 11 -9 1 0 -7 -5 -10 -10 -7 -5 3 -10 2
-10 -2 0 -5 -8 -9 -17 -10 -18 -1 -56 -10 -60 -13 -2 -2 -7 -4 -13 -5 -5 -1
-11 -3 -12 -5 -2 -1 -12 -3 -23 -4 -37 -6 -50 -11 -61 -25 -7 -9 -13 -10 -17
-3 -8 11 -47 4 -47 -9 0 -4 -9 -6 -20 -4 -11 2 -20 0 -20 -6 0 -5 -5 -9 -11
-9 -5 0 -7 6 -3 13 4 6 -2 4 -14 -7 -12 -10 -28 -16 -36 -13 -8 3 -16 2 -18
-3 -2 -6 -15 -11 -30 -12 -16 -1 -28 -6 -28 -10 0 -4 -6 -5 -14 -2 -8 3 -17 0
-21 -6 -6 -9 -10 -9 -16 1 -6 9 -9 10 -9 2 0 -6 -25 -17 -55 -24 -30 -7 -52
-15 -50 -19 2 -4 -6 -6 -19 -5 -14 2 -36 -3 -50 -11 -19 -9 -25 -10 -19 -1 4
7 0 7 -10 -2 -9 -7 -17 -10 -17 -6 0 4 -6 3 -12 -3 -10 -8 -58 -22 -88 -27 -3
0 -11 -4 -19 -9 -11 -7 -12 -6 -6 5 5 8 -1 5 -13 -5 -14 -12 -22 -14 -22 -7 0
8 -5 7 -16 -3 -19 -19 -28 -21 -18 -3 5 9 4 9 -6 0 -7 -6 -19 -9 -28 -6 -11 5
-13 3 -7 -7 6 -10 3 -12 -13 -8 -12 4 -25 2 -28 -3 -3 -5 -10 -7 -15 -4 -5 4
-9 2 -9 -4 0 -5 -9 -8 -20 -6 -11 2 -20 0 -20 -6 0 -5 -9 -9 -21 -9 -11 0 -29
-5 -40 -10 -14 -8 -19 -7 -19 2 0 10 -2 10 -9 0 -4 -7 -21 -15 -37 -16 -16 -2
-28 -9 -26 -15 2 -9 -3 -9 -18 -1 -14 8 -20 8 -20 0 0 -6 -6 -10 -12 -9 -7 1
-25 -3 -41 -9 -22 -9 -27 -17 -23 -37 3 -14 0 -25 -6 -25 -7 0 -6 -5 1 -14 7
-9 8 -17 3 -20 -6 -3 -10 -27 -10 -53 0 -56 -3 -75 -17 -85 -6 -5 -6 -8 2 -8
12 0 12 -24 0 -36 -3 -4 -2 -15 3 -25 6 -10 6 -20 2 -23 -4 -2 -8 -45 -7 -95
0 -54 -4 -91 -10 -91 -7 0 -7 -3 0 -8 6 -4 10 -16 10 -27 0 -11 -4 -23 -10
-27 -5 -4 -1 -8 10 -8 15 0 17 -2 6 -9 -7 -5 -10 -14 -7 -20 4 -6 2 -11 -5
-11 -8 0 -9 -3 0 -13 6 -8 8 -17 4 -21 -4 -4 -1 -11 7 -16 8 -6 10 -10 4 -10
-13 0 -12 -50 1 -70 6 -9 4 -11 -4 -5 -10 6 -11 3 -2 -13 8 -14 8 -23 1 -27
-8 -5 -7 -11 1 -21 6 -7 9 -20 6 -28 -3 -8 -1 -17 6 -20 9 -3 8 -7 -2 -14 -8
-6 -9 -12 -3 -16 6 -3 9 -17 7 -31 -1 -14 1 -25 4 -25 4 0 7 -10 8 -22 1 -59
3 -69 15 -62 7 5 8 3 2 -7 -13 -21 -14 -39 -1 -39 5 0 7 -3 4 -7 -4 -3 -2 -12
4 -20 9 -10 8 -13 -2 -13 -11 0 -11 -2 1 -10 8 -5 12 -10 8 -10 -3 0 1 -21 9
-48 8 -26 16 -58 17 -71 1 -14 7 -26 14 -29 9 -3 9 -9 1 -24 -8 -15 -8 -19 0
-14 7 4 11 -1 11 -13 0 -11 5 -23 10 -26 6 -3 10 -17 10 -31 0 -13 5 -24 10
-24 6 0 10 -11 10 -25 0 -14 5 -25 11 -25 5 0 8 -4 4 -9 -3 -5 -1 -12 5 -16 6
-4 8 -11 5 -16 -4 -5 -1 -9 4 -9 6 0 11 -9 11 -20 0 -11 4 -20 9 -20 5 0 12
-10 16 -22 4 -13 8 -26 10 -30 6 -20 7 -24 6 -31 -1 -5 3 -6 8 -3 5 4 15 -10
21 -30 7 -19 18 -38 26 -41 8 -3 12 -9 9 -13 -3 -4 4 -19 15 -33 11 -14 20
-30 20 -36 0 -6 5 -11 10 -11 6 0 10 -6 10 -14 0 -8 3 -16 8 -18 11 -5 52 -66
52 -78 0 -6 10 -15 22 -20 13 -5 17 -9 10 -9 -7 -1 -10 -6 -7 -11 4 -6 11 -8
16 -5 5 4 9 0 9 -7 0 -8 9 -21 20 -31 12 -10 18 -23 14 -30 -4 -6 -4 -9 0 -5
8 7 76 -55 76 -69 0 -5 15 -17 32 -27 18 -9 25 -14 15 -12 -27 8 -20 -2 13
-19 17 -9 28 -19 26 -24 -3 -4 7 -14 22 -22 15 -8 37 -23 48 -34 43 -40 60
-51 73 -47 8 3 11 0 7 -7 -4 -6 3 -15 18 -21 14 -5 26 -14 26 -20 0 -6 5 -8
10 -5 5 3 10 2 10 -3 0 -9 37 -25 53 -23 4 1 6 -5 5 -11 -2 -7 7 -14 20 -16
13 -2 20 -8 16 -14 -5 -7 -1 -9 9 -5 11 4 17 1 17 -7 0 -12 5 -14 49 -18 11
-1 17 -8 14 -15 -4 -9 0 -11 11 -7 9 3 16 1 16 -5 0 -6 7 -11 15 -11 8 0 15
-5 15 -11 0 -5 4 -8 9 -4 5 3 16 -2 24 -10 19 -18 31 -20 21 -2 -4 6 7 -1 25
-18 19 -18 30 -23 26 -13 -6 15 -4 16 18 5 14 -6 23 -15 21 -19 -3 -5 4 -8 15
-8 12 0 21 -5 21 -12 0 -9 3 -9 12 0 15 15 32 16 23 2 -6 -9 -2 -12 28 -14 6
-1 18 -7 26 -14 7 -7 20 -11 27 -8 8 3 14 1 14 -5 0 -6 7 -9 15 -5 8 3 15 0
15 -6 0 -6 3 -8 7 -5 3 4 13 2 20 -5 11 -9 17 -9 24 3 7 12 9 11 9 -3 0 -10 7
-15 18 -14 9 2 20 -1 23 -5 3 -5 17 -10 32 -11 15 -1 27 -7 27 -13 0 -5 5 -3
10 5 6 10 10 11 10 2 0 -6 3 -11 8 -11 24 4 42 -2 36 -13 -4 -7 -3 -8 5 -4 17
11 62 15 56 6 -7 -11 16 -18 50 -14 22 2 26 1 15 -6 -11 -7 -5 -10 23 -10 20
0 37 -5 37 -11 0 -8 4 -8 13 -1 10 9 19 8 34 -3 12 -8 23 -11 25 -6 2 5 14 4
28 -2 38 -15 51 -17 43 -4 -5 9 -3 9 8 0 21 -17 69 -24 69 -10 0 8 3 7 9 -2 5
-8 16 -11 25 -8 9 4 16 3 16 -1 0 -4 19 -8 43 -10 56 -3 69 -6 86 -16 10 -6
12 -5 7 2 -4 7 -2 12 3 12 6 0 11 -5 11 -11 0 -8 4 -8 14 0 11 9 16 9 21 0 6
-8 10 -7 16 2 7 11 9 11 9 1 0 -7 8 -12 18 -10 9 1 23 -2 31 -7 10 -5 16 -4
19 3 2 7 9 9 15 5 6 -4 25 -8 42 -10 16 -2 41 -4 55 -6 14 -1 33 1 42 5 9 5
20 4 23 -2 9 -15 48 -13 39 3 -4 6 3 3 16 -8 13 -11 20 -15 17 -8 -5 8 0 11
13 10 11 -1 20 -5 20 -9 0 -4 5 -8 11 -8 5 0 7 5 3 12 -4 7 -3 8 5 4 17 -11
101 -15 101 -5 0 5 5 9 11 9 5 0 7 -5 4 -10 -8 -13 33 -9 54 4 9 6 12 5 8 -1
-8 -13 171 -12 192 1 10 7 12 5 6 -3 -5 -9 -2 -12 11 -9 11 2 18 10 16 17 -1
7 2 10 8 6 6 -3 8 -10 6 -14 -3 -4 15 -8 39 -7 25 0 41 4 38 10 -3 5 -1 6 5 2
18 -11 206 -6 218 7 4 4 13 2 21 -4 10 -9 18 -8 32 5 13 11 21 14 26 7 3 -6
11 -11 16 -11 6 0 7 6 3 13 -6 9 -4 9 8 -1 13 -10 17 -10 21 0 4 10 6 9 6 -1
1 -11 5 -10 17 5 8 10 13 13 9 7 -4 -8 0 -13 9 -13 9 0 16 6 16 13 0 8 3 8 9
-2 8 -13 12 -13 27 0 11 9 15 9 10 1 -6 -10 -2 -10 18 -1 20 10 29 9 43 -2 9
-8 14 -9 10 -3 -4 7 0 14 8 18 8 3 17 1 21 -5 3 -6 11 -3 20 8 10 14 13 15 14
3 0 -10 3 -11 11 -3 6 6 17 9 24 7 7 -3 16 0 20 6 5 8 11 7 23 -2 14 -11 15
-10 9 6 -6 16 -5 17 8 6 12 -10 18 -10 30 0 12 10 15 10 15 0 0 -9 3 -10 13
-1 10 8 17 7 27 -2 8 -7 11 -8 7 -1 -9 15 31 26 40 12 4 -7 10 -6 17 3 6 8 18
14 26 14 8 -1 35 4 59 11 25 7 48 11 53 8 4 -3 8 -1 8 4 0 5 7 9 15 10 8 1 22
3 30 4 8 1 15 6 15 11 0 5 7 4 15 -3 15 -12 21 -4 16 23 -1 5 4 5 11 0 19 -11
30 -11 58 2 14 7 31 10 39 7 10 -3 12 0 7 13 -5 15 -4 16 8 6 10 -9 16 -9 21
-1 5 8 11 8 21 -1 12 -10 13 -9 8 6 -5 12 -4 16 3 12 15 -10 44 3 37 15 -4 6
3 5 15 -1 15 -8 21 -9 21 -1 0 6 5 8 10 5 6 -3 10 -1 10 4 0 6 3 10 8 9 17 -5
52 14 45 25 -4 7 1 6 10 -2 11 -8 17 -9 17 -3 0 6 6 9 14 6 7 -3 21 2 30 11 9
9 21 13 27 9 8 -4 9 -3 5 4 -5 8 0 12 13 12 11 0 23 5 26 10 4 6 11 8 16 5 5
-4 12 1 15 10 6 13 8 14 15 3 7 -10 9 -11 9 0 0 8 5 10 12 6 7 -5 9 -2 6 8 -4
10 0 14 15 13 12 -1 25 3 29 9 4 6 12 12 18 12 5 1 15 2 21 3 5 0 7 6 3 13 -5
8 -2 9 10 5 10 -4 24 1 35 12 11 11 22 17 25 14 3 -4 6 -1 6 5 0 6 7 9 17 5
11 -4 14 -3 9 5 -4 7 -1 13 8 13 39 3 59 17 52 35 -3 9 0 11 11 7 10 -4 23 3
35 18 11 13 17 18 13 12 -8 -17 3 -16 20 1 8 7 11 17 7 21 -4 5 -1 5 5 1 7 -4
22 2 34 13 12 11 26 18 31 15 4 -3 8 2 8 10 0 15 12 21 33 17 5 -1 6 3 2 9 -3
5 1 10 9 10 8 0 20 9 26 20 6 11 14 19 19 17 5 -1 20 10 34 25 14 15 28 24 31
21 3 -4 6 1 6 10 0 10 5 14 15 11 10 -4 15 0 15 15 0 15 4 19 17 14 11 -4 14
-3 9 5 -4 7 -3 12 2 12 16 0 52 37 44 45 -4 5 1 5 10 2 11 -4 17 -2 15 6 -1 7
3 11 10 10 7 -2 10 4 6 13 -3 8 -1 14 5 12 13 -4 73 62 66 73 -3 5 3 6 13 2
10 -3 15 -3 11 2 -4 4 3 16 15 26 12 10 19 18 15 19 -5 0 0 8 10 18 9 11 20
17 25 15 4 -2 7 3 7 11 0 9 5 16 11 16 6 0 9 7 5 15 -3 8 -2 14 3 12 12 -3 82
83 75 94 -3 5 2 9 11 9 9 0 14 4 10 9 -3 6 3 14 12 20 10 6 14 11 10 11 -4 0
1 10 12 22 11 11 18 25 15 30 -3 4 2 8 11 8 9 0 14 4 10 9 -3 5 1 15 8 23 8 7
12 19 9 27 -3 8 0 11 7 7 6 -4 11 -1 11 8 0 9 4 16 9 16 5 0 12 13 16 30 4 16
10 30 15 30 15 0 20 32 8 49 -10 13 -10 14 2 4 22 -20 30 -15 30 18 0 23 4 30
14 26 10 -4 14 0 11 14 -2 10 0 19 6 19 5 0 9 9 9 21 0 11 5 17 10 14 6 -4 9
-3 8 2 -1 4 3 18 10 31 7 12 10 22 6 22 -3 0 -1 6 5 13 6 8 8 17 4 20 -3 4 -1
7 6 7 7 0 10 4 7 9 -3 5 2 12 12 16 16 7 15 8 -3 15 -17 7 -17 9 -3 9 10 1 17
4 17 9 -3 20 2 32 13 26 6 -4 8 -3 4 4 -3 6 -2 14 4 17 8 5 7 12 -2 23 -10 12
-10 14 0 8 8 -5 14 2 18 24 4 17 11 33 16 36 5 3 4 12 -3 20 -10 12 -9 13 7 7
17 -6 18 -5 4 12 -9 11 -10 16 -2 11 7 -4 12 -2 12 4 0 6 5 8 13 4 9 -6 9 -4
-1 8 -9 11 -10 18 -2 23 6 3 8 11 5 16 -4 5 -1 9 5 9 6 0 10 8 9 18 -3 30 1
43 10 38 5 -4 8 5 6 19 -1 14 1 25 5 25 4 0 6 12 4 26 -1 17 2 24 10 21 7 -3
11 5 10 22 -1 14 2 31 6 36 5 6 9 13 9 18 1 4 1 8 2 10 0 1 2 11 4 22 6 36 10
50 18 62 4 6 4 18 1 26 -3 8 -1 18 5 22 6 3 11 11 11 16 0 6 -4 8 -10 4 -5 -3
-3 7 5 22 11 21 12 30 2 42 -9 11 -9 13 0 8 6 -4 14 -3 18 3 3 5 1 10 -5 10
-6 0 -8 5 -5 10 4 6 12 7 18 4 9 -5 9 -4 0 6 -8 8 -9 20 -3 36 5 13 7 24 4 24
-4 0 -2 6 3 13 5 6 8 22 7 35 0 12 4 22 10 22 6 0 5 4 -3 9 -9 6 -10 11 -2 15
6 4 9 12 6 17 -4 5 -2 9 2 9 5 0 9 9 9 19 0 11 -5 17 -11 13 -5 -3 -4 2 4 11
7 9 13 35 13 57 -1 28 3 38 11 34 9 -5 9 -4 0 6 -8 9 -9 19 -2 32 5 10 7 18 3
18 -3 0 -1 7 6 15 10 12 10 15 -1 15 -10 0 -10 3 -3 8 6 4 10 15 8 25 -2 15 0
16 12 6 7 -6 11 -16 7 -23 -3 -6 3 -3 15 8 12 10 19 23 16 27 -6 11 -15 12
-11 2 1 -5 -3 -9 -8 -10 -6 -2 -10 4 -10 14 0 9 10 17 23 20 14 2 21 -1 17 -7
-3 -5 -2 -10 3 -10 5 0 10 11 10 25 0 25 -1 25 -19 9 -13 -12 -19 -13 -19 -4
0 10 -4 9 -17 -1 -16 -12 -17 -12 -6 2 7 9 9 20 5 25 -4 4 1 2 11 -6 13 -10
20 -11 26 -2 14 23 71 -2 64 -29 -6 -22 -3 -23 31 -8 14 7 24 19 23 30 -1 19
-17 28 -17 10 0 -12 -27 -8 -40 5 -6 6 3 10 28 9 20 0 43 5 50 12 7 7 19 10
27 7 13 -6 20 6 16 29 0 4 4 7 10 7 6 0 8 -9 4 -22 -6 -19 -5 -21 6 -10 7 6
17 12 23 12 5 0 2 -6 -8 -13 -16 -12 -16 -14 -3 -26 10 -7 14 -22 11 -39 -3
-15 -2 -24 1 -20 4 3 8 14 9 25 2 10 8 18 14 18 7 0 12 4 11 9 -1 12 23 26 34
19 5 -3 4 -8 -2 -12 -6 -4 -2 -12 10 -20 17 -10 20 -10 13 1 -10 16 -14 38 -7
38 3 0 12 -8 20 -17 8 -10 12 -13 9 -6 -4 6 -2 14 4 18 5 3 10 0 10 -7 1 -7 6
-3 13 10 7 12 16 20 20 16 4 -4 1 -14 -6 -23 -11 -14 -10 -14 5 -2 10 7 15 17
12 22 -3 6 9 7 28 4 21 -3 28 -2 19 4 -8 5 -9 11 -3 15 6 3 13 2 17 -4 4 -6
11 -7 17 -4 8 5 9 1 5 -12 -7 -18 -6 -18 6 -2 8 10 18 14 22 10 4 -4 0 5 -9
19 -12 20 -14 32 -7 50 l10 24 0 -23 c1 -13 5 -21 10 -17 5 3 12 1 16 -4 3 -6
-4 -8 -17 -6 l-22 5 23 -23 c22 -22 22 -22 37 -3 10 14 14 16 14 5 0 -11 2
-12 9 0 10 16 20 3 16 -22 -2 -9 0 -15 5 -12 9 6 8 24 -3 43 -10 15 5 16 21 0
9 -9 12 -9 12 0 0 7 -5 12 -11 12 -5 0 -7 5 -4 11 5 7 15 5 30 -5 18 -12 25
-12 28 -3 3 9 9 8 23 -3 17 -14 18 -14 6 2 -9 11 -10 18 -2 23 5 3 10 1 10 -4
0 -6 7 -11 16 -11 9 0 12 -5 8 -12 -4 -7 -3 -9 1 -5 13 11 15 36 5 62 -7 17
-5 25 6 29 10 4 13 15 9 38 -3 18 -3 30 0 27 12 -13 14 -52 2 -71 -9 -16 -9
-22 1 -25 6 -3 9 -10 6 -15 -8 -13 13 -2 38 20 9 7 22 11 29 6 8 -4 10 -3 5 4
-4 7 -2 12 4 12 6 0 8 5 4 12 -5 7 -3 8 6 3 10 -6 12 -4 7 8 -7 18 15 29 40
20 10 -4 14 -2 10 4 -4 7 0 10 10 8 30 -4 34 6 11 27 l-23 20 31 -20 c27 -19
31 -19 40 -4 9 14 11 14 17 -2 5 -11 3 -15 -5 -10 -7 4 -8 3 -4 -4 4 -7 -1
-10 -14 -7 -13 3 -18 0 -14 -7 5 -7 2 -8 -6 -3 -8 5 -11 4 -6 -3 4 -7 -1 -10
-14 -7 -11 2 -18 0 -16 -4 3 -4 -1 -8 -9 -8 -8 0 -15 4 -15 9 0 4 -4 8 -10 8
-5 0 -10 -7 -10 -16 0 -8 4 -13 9 -9 5 3 13 0 17 -6 5 -8 1 -10 -14 -7 -12 3
-23 0 -25 -7 -7 -17 37 -7 60 14 20 18 31 20 52 7 9 -6 12 -5 8 1 -4 6 0 16 7
23 12 9 17 7 25 -8 6 -11 7 -23 3 -27 -4 -5 -1 -5 6 -1 11 6 10 12 -2 31 -14
22 -12 35 6 35 4 0 7 -3 7 -7 -3 -19 2 -33 12 -33 6 0 7 5 2 13 -11 18 -12 37
-2 37 6 0 7 5 3 12 -5 7 -3 8 6 3 9 -6 10 -2 5 15 -5 15 -4 20 4 16 6 -4 11
-14 11 -22 0 -17 11 -18 30 -1 12 10 12 9 2 -4 -10 -13 -9 -19 3 -29 8 -7 12
-17 8 -23 -3 -5 -1 -7 5 -4 11 7 11 25 0 42 -8 14 -1 66 10 77 6 6 13 5 17 -3
5 -8 4 -10 -3 -5 -8 5 -12 -1 -12 -15 0 -22 0 -22 22 -3 12 10 18 13 14 7 -4
-8 -1 -13 8 -13 9 0 15 -3 13 -8 -1 -4 3 -8 8 -10 6 -1 10 2 10 7 0 5 3 13 7
16 4 4 3 16 -3 26 -8 15 -6 17 7 12 12 -4 15 -3 10 6 -6 8 2 7 23 -3 17 -9 31
-14 31 -10 0 4 6 1 14 -5 10 -8 16 -9 21 -1 3 6 11 8 16 5 5 -3 6 1 3 9 -3 9
-10 16 -16 16 -5 0 -7 -4 -4 -8 3 -5 -7 -8 -22 -7 -15 0 -26 4 -24 8 1 4 2 13
2 20 0 6 5 4 11 -6 6 -9 14 -15 20 -12 5 4 3 13 -6 21 -8 9 -15 21 -15 27 0 6
7 1 16 -11 17 -25 36 -30 28 -7 -4 8 -1 15 6 15 6 0 8 -4 5 -10 -3 -5 -1 -10
4 -10 6 0 10 -3 10 -7 -3 -19 2 -33 12 -33 6 0 7 5 2 13 -4 6 -8 19 -9 27 -1
14 -10 41 -22 65 -3 6 -2 7 3 3 4 -4 13 -18 19 -30 8 -15 20 -23 34 -22 16 1
22 -3 18 -13 -3 -8 -1 -11 5 -8 13 8 6 30 -9 31 -7 1 -16 2 -22 3 -5 0 -10 9
-10 19 0 14 2 14 9 3 11 -18 41 -24 35 -7 -2 6 5 17 17 24 15 9 19 10 14 1 -5
-7 -3 -10 6 -7 8 3 13 10 12 16 -2 7 4 9 14 5 11 -4 14 -3 9 5 -4 7 -2 12 3
12 16 0 13 -18 -4 -27 -12 -7 -12 -10 4 -20 11 -7 23 -8 32 -2 11 7 11 9 1 9
-7 0 -10 5 -7 10 5 8 11 8 20 0 10 -8 15 -8 20 0 4 6 14 9 22 6 8 -3 11 -1 8
4 -3 6 1 13 9 16 15 6 17 36 3 50 -3 4 -5 -3 -2 -14 3 -17 0 -20 -23 -16 -26
5 -26 5 -7 -10 11 -9 15 -16 10 -16 -6 0 -17 6 -24 13 -11 10 -12 9 -6 -2 6
-10 4 -12 -5 -6 -8 5 -11 4 -7 -2 3 -5 0 -10 -8 -10 -22 0 -18 9 16 35 16 13
29 18 29 12 0 -6 5 -8 10 -5 8 5 7 12 -2 23 -8 10 -8 13 -1 9 6 -4 14 -1 16 5
4 10 6 10 6 0 1 -7 5 -11 11 -7 5 3 7 13 4 23 -5 16 -5 16 6 0 6 -10 16 -18
22 -18 7 0 6 5 -2 15 -10 12 -10 18 0 30 7 8 18 15 24 15 6 0 3 -5 -7 -11 -13
-8 -15 -14 -7 -29 11 -21 -2 -36 -22 -24 -7 5 -8 3 -3 -6 5 -8 4 -11 -3 -7 -6
5 -8 -1 -4 -15 4 -16 7 -18 9 -8 2 9 13 22 25 29 18 11 20 11 15 -3 -4 -10 -1
-13 8 -10 12 5 12 10 -2 31 -13 20 -14 26 -3 33 7 4 19 6 27 3 8 -3 13 -2 12
3 -1 5 -1 16 0 24 1 12 3 12 11 -2 6 -10 19 -15 32 -13 29 6 34 13 18 28 -7 6
-10 7 -7 1 9 -15 -25 -13 -41 3 -7 7 -9 13 -3 13 5 0 13 -5 16 -10 5 -8 11 -7
21 1 13 10 12 15 -6 31 -28 26 -25 33 5 11 13 -10 23 -22 21 -28 -4 -13 19
-35 36 -35 10 0 10 2 -1 9 -9 6 -10 11 -2 15 6 4 8 12 5 18 -4 6 1 8 14 4 13
-5 22 -1 26 10 5 14 9 14 23 3 9 -8 14 -9 10 -3 -4 7 0 15 8 18 8 3 14 11 13
17 -2 6 3 14 11 17 8 3 11 0 7 -7 -4 -6 -2 -11 4 -11 6 0 9 8 6 18 -3 9 -1 24
4 32 7 11 4 19 -12 31 -16 12 -18 18 -8 24 9 5 11 4 6 -3 -9 -15 -1 -15 26 -1
16 8 19 8 13 -1 -4 -7 -9 -28 -11 -47 -3 -32 -2 -34 10 -18 7 10 11 26 9 36
-3 9 1 20 7 24 9 6 6 13 -11 27 -23 19 -23 19 -1 8 18 -9 22 -8 22 5 0 9 13
24 30 33 16 9 30 21 30 25 0 5 -6 5 -12 1 -7 -4 -10 -4 -6 1 4 4 0 15 -10 23
-12 10 -8 9 10 -2 34 -20 38 -20 38 -1 0 8 4 15 8 15 5 0 9 -7 9 -15 0 -8 -5
-15 -11 -15 -6 0 -4 -5 4 -11 12 -8 11 -9 -5 -7 -11 2 -19 -2 -18 -9 2 -7 -4
-10 -15 -7 -14 5 -14 4 2 -6 14 -10 20 -9 27 1 8 12 11 12 20 -1 10 -13 10
-13 6 1 -3 9 4 21 14 28 11 6 17 16 14 21 -3 6 0 10 7 10 10 0 9 3 -2 9 -8 6
-17 8 -21 5 -13 -7 -21 15 -12 31 8 13 11 13 28 1 19 -15 19 -15 -2 -9 -13 3
-23 1 -23 -3 0 -5 11 -10 25 -10 21 -2 25 2 20 16 -5 15 -1 18 19 16 24 -3 25
-2 10 25 -8 16 -14 32 -13 36 0 4 -4 9 -9 11 -14 4 -9 -22 8 -44 12 -15 12
-16 1 -9 -9 5 -12 4 -8 -2 9 -14 -42 -8 -57 7 -8 8 -6 9 8 4 15 -6 17 -4 11 7
-6 11 -5 12 6 2 7 -7 17 -13 22 -13 4 0 5 6 0 13 -13 21 -12 38 3 44 8 3 11
10 7 17 -4 6 0 6 9 -2 10 -8 19 -9 22 -3 3 5 1 11 -6 13 -8 3 -7 6 3 10 11 4
15 -1 15 -17 0 -13 -4 -21 -10 -18 -5 4 -6 1 -1 -7 5 -9 4 -11 -4 -6 -8 6 -8
1 1 -18 11 -25 11 -26 25 -6 8 11 11 26 7 32 -5 7 -7 27 -5 44 1 18 -4 36 -13
43 -9 8 -16 18 -16 24 0 6 6 3 13 -7 12 -16 14 -16 26 -2 11 13 11 19 1 31
-10 12 -10 18 0 30 12 15 35 11 25 -5 -9 -14 16 -23 28 -11 9 9 7 10 -8 5 -18
-7 -18 -6 -7 9 16 19 8 39 -13 30 -18 -6 -19 1 -5 27 8 15 6 21 -7 29 -11 6
-13 11 -5 11 9 0 10 5 2 19 -8 15 -7 19 6 17 18 -3 39 -34 30 -43 -3 -4 -6 -1
-6 6 0 7 -5 9 -11 5 -8 -5 -8 -9 1 -14 9 -5 9 -13 2 -26 -9 -17 -6 -19 22 -20
17 -1 23 1 13 3 -15 4 -16 7 -5 21 10 12 10 14 1 8 -20 -12 -15 12 7 34 11 11
16 20 12 20 -4 0 -13 -5 -20 -12 -15 -15 -16 -3 -2 23 7 13 8 25 1 37 -7 10
-11 12 -11 4 0 -7 -5 -10 -10 -7 -8 5 -8 11 0 20 7 9 6 16 -4 25 -13 10 -15 8
-11 -9 2 -12 -1 -21 -7 -21 -5 0 -8 7 -4 15 3 8 0 15 -7 15 -8 0 -7 4 3 10 10
6 22 5 36 -5 17 -11 21 -11 21 0 0 8 -5 13 -11 12 -6 -1 -10 3 -9 10 2 9 -4
10 -21 3 -20 -7 -24 -6 -21 8 1 9 -2 23 -7 29 -12 15 -3 43 13 43 8 0 8 -4 -1
-15 -9 -11 -10 -18 -1 -28 6 -8 8 -17 4 -21 -4 -4 0 -4 10 0 9 3 17 10 17 16
0 5 -4 7 -9 3 -15 -9 -24 14 -12 29 8 10 7 17 -4 26 -10 9 -15 9 -15 1 0 -6
-5 -11 -11 -11 -5 0 -7 5 -4 10 3 6 0 10 -7 10 -9 0 -9 3 2 10 9 6 10 10 3 10
-7 0 -17 10 -24 21 -6 12 -7 19 -2 16 5 -4 10 0 10 7 0 9 -7 12 -16 8 -9 -3
-13 -2 -9 2 3 4 -2 16 -13 27 -11 11 -17 24 -14 30 4 5 1 8 -7 7 -7 -2 -12 5
-12 14 1 10 -3 16 -10 15 -6 -1 -10 4 -8 11 1 8 -2 11 -6 8 -11 -7 -44 28 -37
37 3 4 2 5 -1 2 -4 -2 -34 17 -68 43 -60 47 -152 104 -211 130 -16 8 -43 20
-58 28 -16 8 -33 14 -38 14 -5 0 -26 7 -47 16 -20 10 -41 18 -47 19 -5 2 -35
10 -65 20 -30 9 -97 27 -149 40 -98 25 -122 37 -100 50 8 5 10 4 5 -3 -4 -7
-2 -12 3 -12 6 0 11 4 11 9 0 5 3 16 6 24 3 8 -3 23 -13 33 -17 17 -17 17 0
11 9 -3 17 -2 17 3 0 6 -5 10 -11 10 -5 0 -7 5 -4 10 3 6 1 10 -6 10 -7 0 -9
3 -6 6 4 4 12 2 20 -4 10 -8 13 -6 13 8 0 10 -4 16 -8 14 -4 -3 -8 0 -8 6 0 6
-5 8 -12 4 -7 -4 -8 -3 -4 5 4 6 11 9 16 6 5 -3 11 -1 15 5 3 5 -1 10 -9 10
-10 0 -13 6 -9 17 5 12 3 14 -7 8 -10 -6 -11 -4 -4 6 12 20 14 38 3 45 -6 3
-5 11 2 20 6 7 9 30 7 49 -3 24 0 34 7 31 7 -2 12 2 12 10 0 10 -7 12 -21 8
-16 -4 -18 -3 -7 5 12 8 12 12 2 25 -11 14 -11 16 3 16 10 0 15 -4 11 -9 -3
-5 -1 -12 4 -15 5 -4 8 2 7 11 -2 10 2 22 8 26 7 5 3 6 -8 3 -14 -5 -17 -2
-13 13 2 10 0 25 -5 32 -8 11 -9 10 -4 -3 3 -10 1 -18 -4 -18 -9 0 -15 38 -11
63 1 9 32 8 -481 9 -240 1 -443 5 -449 9 -9 5 -10 11 -2 21 6 7 10 28 9 46 0
17 2 32 6 32 3 0 4 10 0 22 -4 15 -2 19 7 13 10 -6 11 -3 2 14 -7 13 -8 21 -2
21 6 0 7 7 4 17 -5 12 -3 14 8 8 12 -8 12 -6 0 8 -7 9 -9 17 -4 17 6 0 9 12 7
27 -1 15 2 33 8 40 8 10 7 13 -3 13 -11 0 -11 2 1 10 10 6 11 10 3 10 -7 0
-13 5 -13 11 0 5 4 7 10 4 6 -3 7 1 4 9 -4 10 -1 16 7 16 9 0 10 3 2 11 -7 7
-8 21 -3 39 5 16 6 31 2 34 -3 3 1 6 9 6 11 0 11 2 -1 10 -8 5 -10 10 -4 10 6
0 11 6 11 14 0 15 -48 29 -70 20 -9 -3 -13 5 -12 26 0 16 2 30 5 30 5 0 5 28
1 62 -1 8 -22 5 -38 -5 -6 -4 -14 -4 -16 0 -7 11 -640 9 -657 -2 -9 -5 -11 -4
-6 3 9 15 1 15 -26 1 -15 -8 -19 -8 -14 0 4 6 4 11 1 11 -4 0 -16 -5 -27 -11
-15 -8 -19 -8 -14 0 4 6 4 11 1 11 -4 0 -16 -5 -27 -11 -15 -8 -19 -8 -14 0 4
6 4 11 1 11 -4 0 -16 -5 -27 -11 -15 -8 -19 -8 -14 0 4 6 4 11 1 11 -4 0 -16
-5 -27 -11 -15 -8 -19 -8 -14 0 4 6 4 11 1 11 -4 0 -16 -5 -27 -11 -15 -8 -19
-8 -14 0 4 6 4 11 1 11 -4 0 -16 -5 -27 -11 -15 -8 -19 -8 -14 0 4 6 4 11 1
11 -4 0 -16 -5 -27 -11 -15 -8 -19 -8 -14 0 4 6 4 11 1 11 -4 0 -16 -5 -27
-11 -15 -8 -19 -8 -14 0 4 6 4 11 1 11 -4 0 -16 -5 -27 -11 -15 -8 -19 -8 -14
0 4 6 4 11 1 11 -4 0 -16 -5 -27 -11 -15 -8 -19 -8 -14 0 4 6 4 11 1 11 -4 0
-16 -5 -27 -11 -15 -8 -19 -8 -14 0 4 6 4 11 1 11 -4 0 -16 -5 -27 -11 -15 -8
-19 -8 -14 0 4 6 4 11 1 11 -4 0 -16 -5 -27 -11 -15 -8 -19 -8 -14 0 4 6 4 11
1 11 -4 0 -16 -5 -27 -11 -15 -8 -19 -8 -14 0 4 6 4 11 1 11 -4 0 -16 -5 -27
-11 -15 -8 -19 -8 -14 0 4 6 4 11 1 11 -4 0 -16 -5 -27 -11 -15 -8 -19 -8 -14
0 4 6 4 11 1 11 -4 0 -16 -5 -27 -11 -13 -7 -18 -7 -14 -1 4 7 -3 10 -15 9
-12 -1 -24 -8 -26 -17z m1515 -951 c-2 -6 3 -14 11 -17 8 -3 11 0 7 7 -4 6 -1
11 8 11 19 0 20 -11 4 -29 -10 -11 -10 -13 0 -7 9 6 12 -66 12 -343 l0 -351
-27 -1 c-34 -1 -163 -1 -180 0 -8 1 -12 15 -11 36 1 19 5 32 11 28 5 -3 4 3
-2 14 -7 14 -7 23 2 32 9 9 8 14 -3 21 -12 8 -12 10 -1 10 7 0 11 6 7 15 -3 8
0 15 6 15 6 0 5 6 -3 17 -8 9 -9 14 -3 10 7 -4 14 2 17 13 4 14 0 20 -11 20
-16 1 -16 1 0 10 10 6 15 19 13 30 -2 11 1 20 7 20 7 0 7 5 -1 14 -9 11 -8 18
4 30 9 9 11 16 5 16 -8 0 -8 6 0 20 7 12 7 20 1 20 -12 0 -5 44 8 48 5 2 7 11
4 21 -3 11 1 29 7 41 7 12 8 20 2 16 -6 -3 -9 5 -8 18 1 18 4 22 13 14 9 -7
10 -2 3 24 -9 30 -8 31 5 14 17 -23 20 -14 5 14 -7 13 -7 21 2 26 7 4 8 3 4
-4 -4 -7 -1 -12 8 -12 8 0 18 5 21 10 4 6 11 7 17 4 7 -4 8 -2 4 5 -4 6 -2 19
6 28 11 15 11 16 -4 10 -10 -3 -20 -1 -24 5 -4 7 -3 8 4 4 11 -6 17 12 13 36
0 4 6 5 15 1 8 -3 14 -2 13 3 -2 13 0 24 6 24 3 0 4 -5 3 -11z m549 2 c14 12
20 3 25 -41 2 -17 10 -26 26 -28 12 -2 22 -8 22 -13 0 -6 6 -7 13 -3 7 5 7 1
-2 -10 -12 -15 -12 -19 -1 -26 7 -4 20 -6 28 -2 11 4 13 1 7 -8 -5 -8 -4 -11
3 -6 6 3 14 2 17 -4 5 -8 11 -7 21 1 15 12 19 0 7 -17 -5 -5 2 2 14 16 l22 24
-5 -24 c-5 -20 -3 -22 5 -10 9 12 11 11 12 -10 l2 -25 4 25 5 24 14 -24 c7
-14 13 -19 14 -12 0 17 20 15 20 -3 0 -8 5 -15 11 -15 5 0 7 6 3 13 -5 7 0 6
11 -3 10 -8 16 -10 12 -3 -4 6 -2 15 5 19 7 4 10 4 6 -1 -13 -14 39 -45 109
-67 37 -11 77 -28 87 -37 11 -9 16 -11 12 -4 -5 9 0 10 24 2 16 -6 30 -15 30
-21 0 -5 4 -7 9 -4 10 6 175 -71 179 -85 2 -5 8 -7 13 -3 5 3 9 0 9 -5 0 -6 5
-11 10 -11 12 0 28 -12 70 -52 15 -15 30 -25 33 -22 2 2 10 -3 17 -12 12 -13
11 -17 -1 -25 -10 -8 -8 -9 11 -7 16 2 24 -2 23 -9 -2 -7 2 -13 7 -13 6 0 10
-4 10 -8 0 -14 -29 -10 -34 5 -3 7 -12 13 -20 13 -8 0 -17 6 -19 13 -4 9 -6 9
-6 -1 -1 -8 8 -16 19 -19 18 -5 25 -15 21 -36 -1 -5 4 -5 11 -1 24 15 48 14
48 -1 0 -9 7 -18 15 -21 8 -4 12 -10 9 -15 -3 -5 -14 1 -25 13 -19 23 -19 23
-2 -9 10 -18 20 -28 21 -23 7 20 20 9 36 -29 50 -126 40 -256 -30 -388 -19
-37 -39 -70 -42 -73 -4 -3 -20 -22 -35 -42 -82 -110 -249 -248 -432 -357 -297
-176 -644 -313 -1084 -427 -107 -27 -332 -70 -337 -63 -3 5 0 9 7 9 8 0 7 5
-2 17 -11 13 -11 15 -1 9 10 -6 13 -2 12 15 -1 13 -1 26 -1 29 1 3 4 21 6 41
5 51 9 63 20 71 6 5 6 8 -1 8 -6 0 -11 7 -11 15 0 8 4 15 9 15 11 0 6 23 -7
32 -6 5 -5 8 3 8 7 0 12 12 11 28 -1 30 3 52 13 67 3 6 4 27 3 48 -2 21 1 37
7 37 6 0 5 7 -3 16 -15 19 -21 47 -8 38 5 -3 7 -9 4 -14 -3 -5 -1 -11 5 -15
10 -6 12 5 14 73 0 17 5 32 11 32 5 0 3 5 -5 10 -8 5 -10 10 -3 10 6 0 10 8 8
18 -1 9 3 23 9 31 9 12 8 13 -4 6 -13 -8 -13 -7 -1 8 11 14 11 17 0 17 -9 0
-10 3 -3 8 17 12 23 39 11 51 -8 8 -8 11 2 11 11 0 11 3 1 15 -11 13 -10 14 6
8 16 -6 17 -5 6 9 -9 11 -10 18 -2 23 6 3 8 10 5 15 -3 5 -1 11 5 15 7 4 7 12
0 26 -10 17 -6 23 12 20 4 0 5 6 2 14 -4 8 -10 13 -14 10 -5 -3 -12 -1 -15 5
-4 6 -3 10 2 9 4 -1 15 -1 23 0 12 1 13 3 1 10 -9 6 -10 11 -2 15 6 4 11 12
11 17 0 6 -5 7 -12 3 -7 -5 -8 -3 -2 7 5 8 7 22 6 32 -2 9 1 17 6 17 6 0 8 10
4 22 -3 11 -1 19 4 16 5 -4 9 7 10 23 1 18 -3 26 -10 22 -6 -4 -5 0 2 9 6 8
13 38 14 67 2 28 6 51 11 51 5 0 5 9 2 20 -3 11 -2 20 3 20 5 0 8 -64 8 -145
-1 -122 1 -144 14 -142 8 1 16 -6 18 -17 3 -13 0 -16 -10 -11 -7 5 -10 4 -5
-1 5 -5 13 -10 18 -10 5 -1 10 -2 12 -4 9 -7 36 -7 31 1 -3 5 0 9 5 9 6 0 11
-8 12 -17 0 -15 2 -15 9 2 5 11 9 14 9 6 1 -17 48 -7 76 17 15 13 17 13 8 2
-8 -10 -9 -21 -3 -30 8 -12 10 -11 10 5 0 16 2 17 10 5 7 -12 12 -12 21 -3 10
10 15 9 26 -5 8 -9 12 -11 8 -4 -5 9 1 11 25 7 20 -4 29 -2 25 5 -10 17 7 11
22 -7 14 -17 14 -17 9 -1 -3 10 -1 20 5 23 5 4 8 1 7 -7 -2 -7 3 -11 12 -9 35
9 55 6 52 -9 -3 -12 -1 -12 9 -3 6 6 18 9 27 6 8 -4 13 -2 9 3 -3 5 3 10 14
10 11 0 18 -5 16 -11 -3 -5 6 -10 18 -10 13 0 21 4 17 9 -3 5 2 6 12 3 10 -4
15 -3 11 3 -3 6 -1 10 4 10 6 0 11 -8 12 -17 0 -15 2 -15 9 2 5 11 9 14 9 6 1
-17 48 -7 76 17 15 13 17 13 8 2 -8 -10 -9 -21 -3 -30 8 -12 10 -11 11 5 0 11
3 14 6 8 2 -7 9 -13 14 -13 6 0 8 4 5 8 -2 4 4 8 15 8 24 0 25 -12 2 -25 -10
-6 -13 -11 -6 -11 6 0 15 5 19 11 3 6 15 9 25 6 11 -3 17 -2 14 3 -3 4 2 11
11 14 8 3 13 2 10 -3 -3 -5 5 -11 18 -13 17 -4 23 -1 19 9 -3 7 -10 10 -16 6
-6 -4 -7 -1 -3 6 6 9 12 9 25 -3 14 -13 19 -12 40 10 18 19 19 23 6 17 -13 -4
-16 -3 -11 5 4 7 1 12 -6 13 -10 0 -10 2 0 6 6 2 12 9 12 14 0 6 -6 7 -12 3
-10 -5 -10 -3 0 7 11 12 14 12 22 -1 5 -8 10 -10 10 -5 0 23 -23 35 -39 22
-14 -11 -14 -10 -2 5 7 10 17 16 21 13 5 -3 12 0 16 6 4 8 3 9 -4 5 -7 -4 -12
-3 -12 3 0 5 6 12 13 14 7 3 5 6 -5 6 -10 1 -18 6 -18 11 0 6 8 11 18 11 15 1
15 2 0 6 -9 2 -16 13 -15 24 1 19 2 19 14 3 7 -10 13 -14 13 -8 0 14 -13 30
-30 37 -13 5 -13 6 1 6 16 1 23 31 6 31 -5 0 -3 8 4 18 13 15 12 16 -3 3 -15
-11 -18 -11 -22 0 -15 51 -12 49 -92 47 -62 -2 -78 0 -88 15 -7 9 -15 15 -17
13 -2 -3 -4 8 -4 24 -1 16 3 26 7 24 5 -3 6 -9 3 -14 -3 -4 2 -13 9 -19 11
-10 14 -9 12 3 -1 9 -5 19 -9 22 -12 12 -8 26 6 18 8 -5 8 -2 -2 9 -11 14 -11
20 0 34 12 14 12 16 0 8 -11 -6 -13 -4 -8 8 3 9 1 19 -5 23 -6 4 -8 3 -5 -3 3
-5 0 -10 -8 -10 -19 0 -8 16 19 27 21 9 21 9 -3 9 l-23 1 23 21 c13 11 18 17
11 14 -8 -4 -13 -2 -11 6 3 24 -1 40 -8 36 -5 -3 -8 14 -9 38 0 24 3 42 6 40
4 -3 6 -16 5 -29 -2 -14 3 -30 10 -36 10 -8 13 -7 11 4 -1 9 -5 19 -9 22 -12
12 -8 26 6 18 8 -5 8 -2 -2 9 -11 14 -11 20 0 34 12 14 12 16 0 8 -11 -6 -13
-4 -8 8 3 9 1 19 -5 23 -6 4 -8 3 -5 -3 3 -5 0 -10 -8 -10 -19 0 -8 16 19 27
21 9 21 9 -3 9 l-23 1 23 21 c13 11 18 17 11 14 -8 -4 -13 -2 -11 6 3 24 -1
40 -8 36 -5 -3 -8 14 -9 38 0 24 3 42 6 40 4 -3 6 -16 5 -29 -2 -14 3 -30 10
-36 10 -8 13 -7 11 4 -1 9 -5 19 -9 22 -12 12 -8 26 6 18 8 -5 8 -2 -2 9 -11
14 -11 20 0 34 12 14 12 16 0 8 -11 -6 -13 -4 -8 8 3 9 1 19 -5 23 -6 4 -8 3
-5 -3 3 -5 0 -10 -8 -10 -21 0 2 27 24 28 9 1 5 4 -9 8 -24 7 -25 8 -3 15 11
4 24 14 28 23 5 14 3 14 -15 -2 -11 -10 -23 -15 -27 -12 -3 4 -1 7 5 7 6 0 9
8 6 18 -5 14 -4 15 5 2 10 -14 16 -7 11 15 -1 6 4 4 11 -2 9 -9 16 -10 26 -2z
m113 -105 c0 -3 -4 -8 -10 -11 -5 -3 -10 -1 -10 4 0 6 5 11 10 11 6 0 10 -2
10 -4z m37 -21 c0 -8 -4 -12 -9 -9 -4 3 -8 9 -8 15 0 5 4 9 8 9 5 0 9 -7 9
-15z m218 -25 c3 -5 1 -10 -4 -10 -6 0 -11 5 -11 10 0 6 2 10 4 10 3 0 8 -4
11 -10z m-420 -480 c3 -5 1 -10 -4 -10 -6 0 -11 5 -11 10 0 6 2 10 4 10 3 0 8
-4 11 -10z m1390 -310 c4 -6 10 -8 15 -5 4 3 6 -4 3 -15 -5 -18 -7 -18 -29 -3
-13 8 -21 19 -18 24 7 12 21 11 29 -1z m-1998 -115 c0 -8 -4 -12 -9 -9 -4 3
-8 9 -8 15 0 5 4 9 8 9 5 0 9 -7 9 -15z m89 3 c4 -7 3 -8 -4 -4 -7 4 -12 2
-12 -5 0 -7 -3 -10 -6 -6 -6 5 3 27 11 27 2 0 7 -5 11 -12z m299 2 c3 -5 1
-10 -4 -10 -6 0 -11 5 -11 10 0 6 2 10 4 10 3 0 8 -4 11 -10z m181 -2 c4 -7 3
-8 -4 -4 -7 4 -12 2 -12 -5 0 -7 -3 -10 -6 -6 -6 5 3 27 11 27 2 0 7 -5 11
-12z m148 3 c3 -5 -1 -11 -9 -14 -9 -4 -12 -1 -8 9 6 16 10 17 17 5z m-234 -5
c0 -2 -7 -7 -16 -10 -8 -3 -12 -2 -9 4 6 10 25 14 25 6z m1470 -100 c0 -6 -7
-1 -15 10 -8 10 -15 23 -15 28 0 6 7 1 15 -10 8 -10 15 -23 15 -28z m-24 -55
c-4 -6 -13 -11 -19 -10 -9 0 -9 2 1 6 6 2 12 9 12 14 0 6 -5 7 -12 3 -7 -5 -8
-3 -3 5 5 9 11 9 17 3 6 -6 7 -15 4 -21z m-4710 -17 c-4 -9 -1 -23 5 -30 7 -8
7 -14 2 -14 -13 0 -11 -43 2 -52 5 -4 2 -15 -8 -26 -9 -10 -14 -22 -10 -25 3
-4 1 -7 -5 -7 -7 0 -11 -3 -11 -7 3 -21 -3 -31 -20 -36 -14 -3 -18 -1 -14 9 3
8 9 12 13 9 5 -3 12 0 16 6 4 8 3 9 -4 5 -7 -4 -12 -2 -12 4 0 6 -5 8 -11 4
-8 -5 -8 -1 0 14 14 27 14 35 -1 26 -10 -5 -10 -4 -1 6 6 7 9 19 6 26 -3 8 0
14 7 14 7 0 10 7 6 16 -6 16 9 54 28 66 16 11 19 10 12 -8z m64 -14 c0 -5 -5
-10 -11 -10 -5 0 -7 5 -4 10 3 6 8 10 11 10 2 0 4 -4 4 -10z m4595 -10 c-3 -5
-12 -10 -18 -10 -7 0 -6 4 3 10 19 12 23 12 15 0z m67 -42 c-7 -7 -12 -8 -12
-2 0 14 12 26 19 19 2 -3 -1 -11 -7 -17z m-112 -48 c0 -5 -5 -10 -11 -10 -5 0
-7 5 -4 10 3 6 8 10 11 10 2 0 4 -4 4 -10z m-20 -31 c0 -4 -11 -6 -24 -5 -13
0 -22 4 -20 8 6 9 44 6 44 -3z m46 -36 c-2 -9 -8 -19 -15 -21 -14 -5 -11 20 4
30 14 10 14 10 11 -9z m-155 -56 c-10 -9 -11 -8 -5 6 3 10 9 15 12 12 3 -3 0
-11 -7 -18z m-54 -32 c0 -8 -4 -12 -9 -9 -5 3 -6 10 -3 15 9 13 12 11 12 -6z
m-17 -19 c0 -2 -8 -10 -17 -17 -16 -13 -17 -12 -4 4 13 16 21 21 21 13z
m-4421 -40 c10 -12 8 -13 -8 -9 -12 3 -18 9 -15 14 7 12 10 11 23 -5z m4441 3
c0 -5 4 -8 9 -5 15 10 6 -22 -12 -42 -9 -10 -15 -21 -12 -24 3 -3 -1 -8 -9
-11 -18 -7 -31 24 -14 34 6 4 16 5 20 3 4 -3 8 -1 8 4 0 17 -13 21 -34 11 -20
-10 -20 -10 -2 5 13 11 23 13 30 6 19 -19 29 -10 11 10 -10 11 -13 20 -7 20 7
0 12 -5 12 -11z m-66 -45 c3 -8 2 -12 -4 -9 -6 3 -10 10 -10 16 0 14 7 11 14
-7z m5 -50 c-12 -15 -33 -9 -23 7 3 5 0 17 -8 26 -11 14 -8 13 15 -2 21 -14
25 -20 16 -31z m-64 16 c-3 -5 -12 -10 -18 -10 -7 0 -6 4 3 10 19 12 23 12 15
0z m22 -10 c-1 -11 -5 -20 -9 -20 -10 0 -10 4 -2 24 8 22 13 20 11 -4z m3 -34
c0 -3 -4 -8 -10 -11 -5 -3 -10 -1 -10 4 0 6 5 11 10 11 6 0 10 -2 10 -4z
m-203 -33 c-4 -3 -2 -11 3 -18 7 -8 5 -12 -4 -12 -8 0 -12 7 -11 16 5 22 4 21
12 21 3 0 3 -3 0 -7z m-43 -45 c-5 -7 -1 -9 9 -5 23 9 22 0 -1 -12 -15 -8 -18
-6 -18 14 0 13 4 21 8 19 5 -3 5 -10 2 -16z m-18 -40 c4 -7 3 -8 -4 -4 -7 4
-12 1 -12 -8 0 -9 -2 -16 -4 -16 -2 0 -13 -3 -23 -6 -16 -6 -16 -5 2 9 11 9
16 17 10 17 -5 0 -3 5 5 10 19 12 17 12 26 -2z m-100 -44 c1 -9 0 -13 -4 -10
-3 4 -7 14 -8 22 -1 9 0 13 4 10 3 -4 7 -14 8 -22z m-71 -14 c-3 -5 -12 -10
-18 -10 -7 0 -6 4 3 10 19 12 23 12 15 0z m47 -1 c2 -2 1 -3 -1 -1 -3 1 -10
-7 -16 -19 -11 -19 -13 -19 -18 -5 -5 12 -3 15 5 10 7 -5 9 -2 5 8 -3 10 -1
15 8 14 8 -1 16 -4 17 -7z m85 -24 c0 -8 -4 -12 -9 -9 -5 3 -6 10 -3 15 9 13
12 11 12 -6z m-183 -21 c3 -8 2 -12 -4 -9 -6 3 -10 10 -10 16 0 14 7 11 14 -7z
m-59 -35 c-4 -5 -12 -9 -18 -8 -9 0 -8 2 1 6 6 2 9 10 6 15 -4 7 -2 8 5 4 6
-4 9 -12 6 -17z m-55 -19 c0 -5 -4 -10 -10 -10 -5 0 -10 5 -10 10 0 6 5 10 10
10 6 0 10 -4 10 -10z m-37 -27 c-4 -10 -9 -11 -19 -2 -18 15 -18 15 5 15 11 0
17 -5 14 -13z m30 -37 c-3 -4 -9 -2 -14 5 -13 22 -11 31 5 17 8 -7 12 -17 9
-22z m-158 15 c3 -5 2 -12 -3 -15 -5 -3 -9 1 -9 9 0 17 3 19 12 6z m35 -6 c0
5 5 4 12 -3 9 -9 9 -15 -1 -24 -10 -11 -11 -9 -5 5 4 12 2 17 -6 15 -7 -2 -15
4 -17 12 -4 13 -3 13 6 0 6 -8 11 -11 11 -5z m-113 -37 c1 -10 -3 -18 -9 -18
-6 0 -8 3 -5 7 4 3 2 11 -3 18 -7 8 -6 12 3 12 7 0 14 -9 14 -19z m61 -14 c2
-1 -4 -4 -13 -8 -9 -3 -13 -2 -10 4 3 6 2 10 -3 10 -6 0 -13 8 -16 17 -6 14
-4 14 16 -2 13 -11 24 -20 26 -21z m7 18 c-3 -3 -11 0 -18 7 -9 10 -8 11 6 5
10 -3 15 -9 12 -12z m-227 -57 c-3 -3 -9 2 -12 12 -6 14 -5 15 5 6 7 -7 10
-15 7 -18z m82 18 c0 -1 -15 -10 -32 -18 -24 -11 -28 -12 -16 -2 10 8 16 16
13 18 -2 3 5 5 15 5 11 0 20 -1 20 -3z m-160 -27 c0 -2 -7 -7 -16 -10 -8 -3
-12 -2 -9 4 6 10 25 14 25 6z m100 -25 c0 -15 -49 -53 -59 -46 -6 3 -9 11 -5
16 3 5 10 7 15 4 5 -4 14 -3 21 1 8 5 6 10 -8 15 -17 7 -17 8 -1 8 10 1 15 5
12 11 -3 6 1 7 9 4 9 -3 16 -9 16 -13z m-90 -1 c0 -5 -5 -10 -11 -10 -5 0 -7
5 -4 10 3 6 8 10 11 10 2 0 4 -4 4 -10z m-95 -21 c-4 -5 -12 -9 -18 -8 -9 0
-8 2 1 6 6 2 9 10 6 15 -4 7 -2 8 5 4 6 -4 9 -12 6 -17z m-61 -1 c-5 -8 -2 -9
9 -5 23 9 21 0 -2 -13 -16 -8 -19 -7 -16 8 5 23 4 22 11 22 3 0 2 -5 -2 -12z
m104 -13 c-3 -3 -9 2 -12 12 -6 14 -5 15 5 6 7 -7 10 -15 7 -18z m45 -44 c-2
-3 -8 0 -15 7 -8 8 -17 6 -36 -6 -19 -12 -27 -13 -30 -4 -2 7 -8 10 -13 6 -5
-3 -9 0 -9 6 0 7 7 10 15 6 8 -3 15 -1 15 5 0 5 6 9 13 8 27 -3 37 2 37 19 1
10 6 6 14 -13 7 -16 11 -32 9 -34z m-208 31 c-3 -3 -11 0 -18 7 -9 10 -8 11 6
5 10 -3 15 -9 12 -12z m135 8 c-8 -5 -19 -10 -25 -10 -5 0 -3 5 5 10 8 5 20
10 25 10 6 0 3 -5 -5 -10z m-80 -26 c0 -2 -7 -4 -15 -4 -8 0 -15 4 -15 10 0 5
7 7 15 4 8 -4 15 -8 15 -10z m37 10 c-3 -3 -12 -4 -19 -1 -8 3 -5 6 6 6 11 1
17 -2 13 -5z m-47 -30 c11 -1 20 2 20 6 0 4 7 7 16 7 12 0 10 -5 -7 -18 -13
-10 -27 -15 -31 -13 -4 2 -11 -4 -17 -13 -8 -15 -12 -16 -23 -4 -8 8 -8 11 -1
7 16 -9 28 13 14 27 -6 6 -11 16 -11 22 0 5 5 3 10 -5 5 -8 18 -16 30 -16z
m-87 -32 c16 -17 16 -20 3 -18 -8 1 -19 5 -22 9 -4 4 -16 -1 -27 -10 -11 -10
-17 -12 -13 -5 9 15 -6 16 -21 1 -9 -9 -14 -5 -19 14 -3 15 -11 24 -17 20 -6
-3 -7 -1 -3 6 9 14 26 5 26 -15 0 -8 5 -14 11 -14 5 0 8 4 5 9 -4 5 5 8 19 6
14 -1 28 2 31 6 3 5 1 9 -3 9 -5 0 -18 7 -29 15 -17 15 -16 15 11 2 17 -8 38
-24 48 -35z m1 36 c-3 -4 -11 -5 -19 -1 -21 7 -19 12 4 10 11 0 18 -5 15 -9z
m-2521 -38 c3 -11 1 -20 -4 -20 -5 0 -9 9 -9 20 0 11 2 20 4 20 2 0 6 -9 9
-20z m2355 3 c-6 -7 -14 -13 -18 -13 -3 0 -7 6 -7 13 0 7 8 13 18 13 13 0 15
-3 7 -13z m-2505 -7 c4 -10 0 -14 -14 -13 -20 1 -24 9 -12 20 10 11 20 8 26
-7z m2560 -34 c-5 -11 -9 -9 -19 9 -19 34 -17 41 5 22 11 -9 17 -23 14 -31z
m-2363 34 c0 -2 -7 -7 -16 -10 -8 -3 -12 -2 -9 4 6 10 25 14 25 6z m17 -30
c-22 -24 -37 -25 -37 -3 0 7 4 6 10 -3 8 -13 10 -13 10 2 0 15 12 25 32 27 3
1 -3 -10 -15 -23z m2039 0 c1 -9 -5 -12 -20 -8 -18 5 -18 7 -3 10 10 2 14 8
11 15 -4 7 -3 8 1 4 5 -4 10 -14 11 -21z m54 9 c19 -22 8 -25 -12 -3 -10 10
-14 18 -9 18 5 0 14 -7 21 -15z m227 -21 c-4 -4 -13 -1 -22 6 -12 10 -15 10
-15 0 0 -8 -3 -10 -6 -7 -9 9 -46 -12 -39 -23 6 -10 -21 -7 -31 3 -12 11 38
48 57 42 9 -3 20 -1 24 6 5 8 12 6 23 -5 9 -8 13 -19 9 -22z m-2277 11 c0 -2
-5 -15 -12 -29 -8 -20 -14 -23 -24 -15 -17 14 -7 39 13 32 11 -4 14 -2 9 5 -4
7 -2 12 3 12 6 0 11 -2 11 -5z m67 -17 c-3 -8 -6 -5 -6 6 -1 11 2 17 5 13 3
-3 4 -12 1 -19z m1968 4 c-3 -3 -11 0 -18 7 -9 10 -8 11 6 5 10 -3 15 -9 12
-12z m-1928 -8 c-3 -3 -12 -4 -19 -1 -8 3 -5 6 6 6 11 1 17 -2 13 -5z m73 -20
c0 -2 -9 0 -20 6 -11 6 -20 13 -20 16 0 2 9 0 20 -6 11 -6 20 -13 20 -16z
m1770 22 c0 -2 -7 -6 -15 -10 -8 -3 -15 -1 -15 4 0 6 7 10 15 10 8 0 15 -2 15
-4z m-1650 -26 c0 -5 -5 -10 -11 -10 -5 0 -7 5 -4 10 3 6 8 10 11 10 2 0 4 -4
4 -10z m1735 -27 c-19 -13 -31 -11 -21 5 3 5 13 9 22 9 15 0 15 -2 -1 -14z
m-5018 -168 c0 -8 -4 -12 -9 -9 -5 3 -6 10 -3 15 9 13 12 11 12 -6z m4763
-479 c0 -2 -7 -7 -16 -10 -8 -3 -12 -2 -9 4 6 10 25 14 25 6z m-700 -1310 c0
-2 -8 -10 -17 -17 -16 -13 -17 -12 -4 4 13 16 21 21 21 13z m-4140 -740 c0 -2
-8 -10 -17 -17 -16 -13 -17 -12 -4 4 13 16 21 21 21 13z m2780 -60 c0 -2 -8
-10 -17 -17 -16 -13 -17 -12 -4 4 13 16 21 21 21 13z m-1470 -170 c0 -2 -8
-10 -17 -17 -16 -13 -17 -12 -4 4 13 16 21 21 21 13z"/>
<path d="M8959 7288 c-5 -18 -6 -38 -1 -34 7 8 12 36 6 36 -2 0 -4 -1 -5 -2z"/>
<path d="M9000 7202 c0 -5 7 -9 15 -9 8 0 12 4 9 9 -3 4 -9 8 -15 8 -5 0 -9
-4 -9 -8z"/>
<path d="M9433 6985 c0 -8 4 -12 9 -9 5 3 6 10 3 15 -9 13 -12 11 -12 -6z"/>
<path d="M9510 6966 c0 -2 7 -7 16 -10 8 -3 12 -2 9 4 -6 10 -25 14 -25 6z"/>
<path d="M9662 6924 c10 -10 20 -16 22 -13 3 3 -5 11 -17 18 -21 13 -21 12 -5
-5z"/>
<path d="M9580 6925 c0 -2 6 -8 13 -14 10 -8 14 -7 14 2 0 8 -6 14 -14 14 -7
0 -13 -1 -13 -2z"/>
<path d="M9632 6907 c-8 -10 -6 -13 7 -13 11 0 17 6 14 13 -3 7 -6 13 -8 13
-1 0 -7 -6 -13 -13z"/>
<path d="M9712 6890 c13 -20 28 -27 28 -12 0 4 -9 13 -20 20 -19 12 -20 11 -8
-8z"/>
<path d="M9690 6881 c0 -6 4 -13 10 -16 6 -3 7 1 4 9 -7 18 -14 21 -14 7z"/>
<path d="M9640 6860 c-9 -6 -10 -10 -3 -10 6 0 15 5 18 10 8 12 4 12 -15 0z"/>
<path d="M9750 6860 c0 -5 5 -10 10 -10 6 0 10 5 10 10 0 6 -4 10 -10 10 -5 0
-10 -4 -10 -10z"/>
<path d="M9805 6826 c18 -17 22 -25 13 -34 -9 -9 -9 -12 0 -12 7 0 12 5 12 11
0 5 6 7 13 3 6 -4 2 4 -11 18 -12 13 -20 27 -18 29 3 3 -4 5 -14 6 -18 2 -17
-1 5 -21z"/>
<path d="M9695 6820 c-3 -5 -1 -10 4 -10 6 0 11 5 11 10 0 6 -2 10 -4 10 -3 0
-8 -4 -11 -10z"/>
<path d="M9774 6819 c-3 -6 -2 -15 4 -21 6 -6 12 -6 17 3 6 8 4 10 -5 4 -10
-6 -12 -4 -7 8 7 19 2 23 -9 6z"/>
<path d="M9860 6800 c0 -5 5 -10 11 -10 5 0 7 5 4 10 -3 6 -8 10 -11 10 -2 0
-4 -4 -4 -10z"/>
<path d="M9790 6759 c0 -5 5 -7 10 -4 6 3 10 8 10 11 0 2 -4 4 -10 4 -5 0 -10
-5 -10 -11z"/>
<path d="M9820 6766 c0 -2 8 -10 18 -17 15 -13 16 -12 3 4 -13 16 -21 21 -21
13z"/>
<path d="M9900 6700 c-9 -6 -10 -10 -3 -10 6 0 15 5 18 10 8 12 4 12 -15 0z"/>
<path d="M9930 6660 c0 -5 5 -10 11 -10 5 0 7 5 4 10 -3 6 -8 10 -11 10 -2 0
-4 -4 -4 -10z"/>
<path d="M9980 6645 c0 -5 5 -17 10 -25 5 -8 10 -10 10 -5 0 6 -5 17 -10 25
-5 8 -10 11 -10 5z"/>
<path d="M8626 6212 c-3 -5 1 -9 9 -9 8 0 15 4 15 9 0 4 -4 8 -9 8 -6 0 -12
-4 -15 -8z"/>
<path d="M10270 6346 c0 -2 7 -7 16 -10 8 -3 12 -2 9 4 -6 10 -25 14 -25 6z"/>
<path d="M5487 6026 c-4 -10 -1 -13 8 -9 8 3 12 9 9 14 -7 12 -11 11 -17 -5z"/>
<path d="M5489 5994 c-17 -21 -20 -42 -7 -50 6 -4 5 -10 -3 -15 -7 -4 -10 -11
-6 -15 10 -10 47 39 37 51 -4 6 -6 18 -5 28 4 21 1 21 -16 1z m6 -13 c-3 -5
-1 -12 5 -16 6 -4 8 -11 4 -16 -9 -14 -23 -1 -19 19 5 23 4 22 11 22 3 0 3 -4
-1 -9z"/>
<path d="M8294 4988 l-19 -23 25 20 c14 11 27 21 29 22 2 2 0 3 -6 3 -5 0 -18
-10 -29 -22z"/>
<path d="M9324 7358 c-3 -4 2 -8 10 -8 8 0 17 4 20 8 3 5 -2 9 -10 9 -8 0 -17
-4 -20 -9z"/>
<path d="M785 7049 c-3 -3 3 -13 13 -20 9 -7 14 -9 10 -5 -4 5 -3 14 2 21 7 8
5 12 -6 12 -8 0 -17 -4 -19 -8z"/>
<path d="M857 6920 c-3 -11 -2 -22 2 -24 4 -3 8 6 9 20 2 29 -4 31 -11 4z"/>
<path d="M10196 6647 c3 -10 9 -15 12 -12 3 3 0 11 -7 18 -10 9 -11 8 -5 -6z"/>
<path d="M3310 6401 c0 -6 -15 -11 -34 -11 -19 0 -38 -5 -41 -10 -4 -6 -14
-10 -23 -8 -10 1 -27 -3 -38 -10 -12 -6 -24 -8 -28 -5 -3 3 -6 1 -6 -4 0 -6
-8 -10 -17 -8 -10 1 -23 -2 -30 -7 -7 -5 -16 -7 -22 -4 -5 4 -15 0 -23 -7 -7
-7 -29 -12 -50 -12 -20 0 -36 -4 -35 -10 1 -5 -8 -9 -20 -9 -13 1 -23 -2 -23
-6 0 -3 -10 -6 -22 -5 -13 1 -32 -4 -43 -10 -11 -7 -28 -11 -38 -10 -9 2 -15
-1 -11 -6 3 -5 -11 -9 -30 -9 -20 0 -36 -4 -36 -9 0 -6 -9 -8 -20 -6 -11 2
-20 -1 -20 -6 0 -6 -4 -7 -10 -4 -5 3 -16 3 -22 -2 -7 -4 -19 -9 -25 -10 -7
-2 -19 -4 -25 -6 -7 -1 -19 -6 -25 -10 -8 -5 -13 -3 -13 5 0 10 -2 10 -9 -1
-9 -13 -25 -18 -73 -23 -10 -1 -18 -7 -18 -12 0 -5 -3 -6 -7 -3 -3 4 -13 1
-21 -6 -13 -10 -14 -9 -7 3 7 12 6 13 -6 4 -15 -12 -45 -22 -94 -30 -16 -3
-36 -10 -42 -16 -7 -6 -22 -8 -33 -5 -13 3 -18 1 -13 -6 4 -6 0 -8 -10 -4 -9
3 -19 2 -23 -4 -3 -6 -12 -8 -20 -5 -8 3 -14 0 -14 -6 0 -6 -3 -8 -6 -5 -4 3
-14 2 -24 -3 -9 -5 -28 -11 -41 -14 -13 -3 -35 -8 -49 -11 -14 -4 -31 -7 -37
-7 -7 -1 -13 -5 -13 -9 0 -5 -7 -6 -15 -3 -8 4 -15 2 -15 -2 0 -5 -11 -10 -25
-10 -14 -1 -33 -5 -43 -9 -17 -8 -32 -11 -67 -17 -11 -2 -26 -10 -33 -18 -12
-13 -13 -12 -8 5 6 19 6 19 -9 1 -8 -10 -12 -23 -9 -27 3 -5 0 -9 -6 -9 -8 0
-7 -6 1 -21 7 -13 7 -19 1 -15 -6 4 -11 -2 -11 -11 0 -25 -9 -117 -12 -120 -1
-2 -2 -11 -3 -20 -1 -10 -5 -24 -9 -30 -5 -8 -3 -13 5 -13 8 0 9 -3 3 -8 -10
-7 -17 -43 -19 -99 0 -17 -4 -29 -7 -27 -4 2 -7 -6 -7 -19 1 -54 -12 -140 -22
-152 -8 -9 -8 -15 0 -20 6 -3 8 -11 5 -16 -10 -15 -15 -51 -9 -61 3 -5 12 -4
20 3 8 6 17 9 21 6 3 -4 12 -2 19 4 9 8 15 5 24 -10 9 -18 8 -21 -7 -21 -14 0
-15 -2 -5 -9 17 -11 17 -21 0 -32 -10 -7 -10 -9 0 -9 8 0 10 -5 5 -12 -11 -19
-12 -37 -2 -44 5 -3 9 0 9 6 0 7 7 10 15 6 8 -3 15 -1 15 3 0 5 14 8 31 7 18
-1 33 3 36 11 3 7 9 11 13 8 5 -3 12 -1 15 5 5 8 12 7 23 -2 14 -11 15 -10 9
6 -6 16 -5 17 8 6 11 -9 15 -9 15 -1 0 7 5 9 10 6 6 -3 10 -1 10 6 0 8 5 7 17
-2 9 -8 14 -9 10 -3 -4 8 8 14 34 18 22 3 37 11 34 16 -3 6 1 7 10 4 8 -4 23
0 32 7 9 8 14 9 10 3 -3 -6 0 -11 8 -11 8 0 12 4 9 9 -3 4 4 8 16 8 12 0 31 5
43 12 12 7 33 11 46 9 15 -2 21 1 17 8 -4 6 -2 11 3 11 6 0 11 -6 11 -12 0 -8
3 -9 8 -3 7 10 27 17 50 18 6 0 12 4 12 9 0 5 5 6 10 3 6 -3 10 -2 10 3 0 10
30 9 48 -1 8 -6 10 -3 5 9 -5 14 -2 16 20 12 15 -3 27 -1 27 4 0 5 4 7 9 4 5
-3 14 1 21 9 9 11 16 12 25 5 9 -7 14 -7 17 -1 3 10 34 19 71 20 9 1 17 9 18
19 0 14 2 14 9 -3 5 -11 9 -14 9 -8 1 7 4 12 9 12 25 -4 42 2 36 14 -6 9 -5 9
7 0 13 -10 19 -10 34 1 11 8 25 12 31 9 7 -2 15 1 19 6 3 6 11 8 17 5 8 -5 9
-1 4 11 -5 14 -4 15 7 7 16 -13 58 -12 50 2 -4 5 3 7 15 4 12 -3 23 0 26 7 2
7 16 11 30 10 14 -2 26 1 26 7 0 6 7 5 16 -2 12 -11 15 -11 12 0 -2 8 10 14
36 16 22 2 42 7 45 11 3 5 20 10 36 11 17 2 37 10 46 18 12 11 18 11 27 2 8
-8 12 -8 12 -1 0 15 38 23 44 9 3 -7 5 -7 5 2 1 6 8 12 16 12 8 0 15 6 15 13
0 8 4 7 10 -3 9 -13 14 -7 11 13 0 4 4 7 10 7 8 0 8 5 -1 15 -7 9 -8 15 -2 15
6 0 9 8 7 18 -1 9 3 23 9 31 9 12 8 13 -4 6 -13 -8 -13 -6 -1 8 8 10 12 31 9
52 -3 26 0 35 11 35 11 0 10 4 -5 16 -10 8 -13 13 -6 9 6 -3 12 -3 13 2 0 4 2
20 4 36 3 19 0 25 -8 20 -9 -5 -8 -2 0 9 7 8 10 18 6 21 -3 4 -2 7 4 7 6 0 9
11 8 25 -2 14 0 25 3 25 12 0 9 64 -2 72 -7 5 -4 8 7 8 10 0 15 5 12 10 -4 6
-1 18 6 26 10 13 10 17 -1 24 -10 6 -11 12 -3 22 6 7 10 28 9 46 0 17 3 32 8
32 5 0 2 8 -5 17 -8 10 -9 14 -2 10 6 -4 15 -2 19 4 4 8 3 9 -4 5 -7 -4 -12 0
-13 11 0 11 -3 13 -6 5 -2 -6 -9 -10 -14 -6 -5 3 -9 2 -9 -3 0 -4 -13 -8 -29
-8 -26 0 -28 2 -15 16 10 11 11 18 2 27 -8 8 -8 15 -1 24 13 16 14 66 2 74 -5
3 -9 0 -9 -5z"/>
<path d="M10336 6282 c-2 -4 -1 -14 4 -22 7 -11 9 -9 7 8 -1 24 -3 26 -11 14z"/>
<path d="M5615 6231 c-3 -5 -2 -12 3 -15 5 -3 9 1 9 9 0 17 -3 19 -12 6z"/>
<path d="M5630 6186 c0 -2 7 -7 16 -10 8 -3 12 -2 9 4 -6 10 -25 14 -25 6z"/>
<path d="M10264 6179 c-3 -6 -1 -16 4 -21 8 -8 11 -5 9 11 -1 24 -3 25 -13 10z"/>
<path d="M5585 6159 c-4 -6 -5 -12 -2 -15 2 -3 7 2 10 11 7 17 1 20 -8 4z"/>
<path d="M10269 6123 c-13 -14 -18 -23 -10 -18 11 6 13 4 7 -10 -5 -15 -4 -16
9 -5 11 10 13 15 4 20 -7 5 -8 10 -1 14 6 3 12 0 15 -6 2 -7 8 -9 13 -5 5 4 2
12 -5 16 -11 7 -11 10 0 14 8 3 9 6 3 6 -6 1 -21 -11 -35 -26z"/>
<path d="M5630 6130 c-8 -5 -12 -12 -9 -15 4 -3 12 1 19 10 14 17 11 19 -10 5z"/>
<path d="M5530 6120 c0 -5 5 -10 11 -10 5 0 7 5 4 10 -3 6 -8 10 -11 10 -2 0
-4 -4 -4 -10z"/>
<path d="M5596 6095 c-9 -26 -7 -32 5 -12 6 10 9 21 6 23 -2 3 -7 -2 -11 -11z"/>
<path d="M10290 6085 c-9 -11 -10 -19 -3 -26 8 -8 13 -7 18 2 5 8 4 10 -3 5
-16 -9 -15 7 0 22 7 7 9 12 6 12 -3 0 -11 -7 -18 -15z"/>
<path d="M10268 6033 c6 -2 9 -10 6 -15 -4 -7 -2 -8 5 -4 13 9 5 26 -12 25 -9
0 -8 -2 1 -6z"/>
<path d="M5544 6005 c-7 -16 2 -35 17 -35 5 0 9 5 9 11 0 5 -4 7 -10 4 -5 -3
-10 0 -10 9 0 8 6 17 13 19 9 4 9 6 -1 6 -7 1 -15 -6 -18 -14z"/>
<path d="M10250 5971 c0 -6 4 -13 10 -16 6 -3 7 1 4 9 -7 18 -14 21 -14 7z"/>
<path d="M5550 5951 c0 -6 4 -13 10 -16 6 -3 7 1 4 9 -7 18 -14 21 -14 7z"/>
<path d="M10195 5900 c-3 -5 -1 -10 4 -10 6 0 11 5 11 10 0 6 -2 10 -4 10 -3
0 -8 -4 -11 -10z"/>
<path d="M10045 5820 c-3 -5 -3 -14 0 -20 3 -5 0 -10 -7 -10 -9 0 -9 -3 2 -10
8 -5 10 -10 4 -10 -17 0 -25 -28 -12 -36 6 -4 8 -3 4 4 -3 6 3 17 15 26 20 13
20 17 8 32 -12 16 -12 17 4 11 10 -4 23 -7 28 -7 6 0 7 -4 4 -10 -10 -16 1
-11 16 7 8 9 9 14 3 10 -6 -3 -20 0 -30 8 -23 17 -31 18 -39 5z"/>
<path d="M10077 5763 c-4 -3 -7 -11 -7 -17 0 -6 5 -5 12 2 6 6 9 14 7 17 -3 3
-9 2 -12 -2z"/>
<path d="M5514 5688 c10 -16 19 -28 20 -28 0 0 2 12 2 28 1 15 -1 21 -3 14 -4
-10 -8 -10 -21 0 -12 10 -12 7 2 -14z"/>
<path d="M5575 5661 c-3 -5 -2 -12 3 -15 5 -3 9 1 9 9 0 17 -3 19 -12 6z"/>
<path d="M9949 5643 c-13 -16 -12 -17 4 -4 9 7 17 15 17 17 0 8 -8 3 -21 -13z"/>
<path d="M5575 5620 c3 -5 8 -10 11 -10 2 0 4 5 4 10 0 6 -5 10 -11 10 -5 0
-7 -4 -4 -10z"/>
<path d="M9870 5601 c0 -6 4 -13 10 -16 6 -3 7 1 4 9 -7 18 -14 21 -14 7z"/>
<path d="M9751 5563 c4 -26 -2 -35 -14 -24 -8 6 -17 8 -20 4 -10 -9 14 -34 26
-26 6 4 8 0 4 -10 -4 -11 -2 -14 9 -10 11 4 12 9 5 16 -8 8 -6 14 9 22 19 10
19 11 0 23 -11 7 -20 9 -19 5z"/>
<path d="M9796 5502 c-3 -5 1 -9 9 -9 8 0 12 4 9 9 -3 4 -7 8 -9 8 -2 0 -6 -4
-9 -8z"/>
<path d="M9464 5398 c-4 -7 17 -10 42 -7 4 0 11 -5 15 -13 6 -9 9 -9 9 -1 0
22 -55 40 -66 21z"/>
<path d="M9610 5401 c0 -6 4 -13 10 -16 6 -3 7 1 4 9 -7 18 -14 21 -14 7z"/>
<path d="M5385 5370 c-4 -6 1 -7 12 -3 15 6 16 5 5 -9 -13 -16 -12 -17 27 -9
7 2 -21 31 -30 31 -4 0 -11 -4 -14 -10z"/>
<path d="M9470 5365 c0 -8 2 -15 4 -15 2 0 6 7 10 15 3 8 1 15 -4 15 -6 0 -10
-7 -10 -15z"/>
<path d="M9497 5355 c-4 -8 -3 -16 1 -19 4 -3 9 4 9 15 2 23 -3 25 -10 4z"/>
<path d="M9407 5343 c3 -7 9 -10 14 -7 14 8 11 21 -5 21 -8 0 -12 -6 -9 -14z"/>
<path d="M5396 5318 c3 -5 10 -6 15 -3 13 9 11 12 -6 12 -8 0 -12 -4 -9 -9z"/>
<path d="M5450 5319 c0 -5 -4 -7 -10 -4 -5 3 -10 1 -10 -5 0 -7 7 -10 15 -6
20 7 19 -3 -2 -28 -15 -17 -15 -19 -1 -8 11 9 18 10 23 2 3 -6 11 -8 16 -5 5
4 9 2 9 -3 0 -6 8 -13 17 -16 15 -6 15 -5 -1 13 -10 11 -22 18 -27 16 -4 -3
-10 -1 -13 4 -4 5 0 11 7 13 9 2 8 8 -5 21 -10 9 -18 12 -18 6z"/>
<path d="M9430 5322 c0 -5 7 -9 15 -9 8 0 12 4 9 9 -3 4 -9 8 -15 8 -5 0 -9
-4 -9 -8z"/>
<path d="M9265 5300 c-3 -5 -1 -10 6 -10 10 0 10 -3 1 -12 -7 -7 -12 -16 -12
-22 0 -5 9 1 20 14 19 22 19 40 0 40 -5 0 -12 -4 -15 -10z"/>
<path d="M9310 5286 c0 -2 7 -7 16 -10 8 -3 12 -2 9 4 -6 10 -25 14 -25 6z"/>
<path d="M9185 5260 c-4 -6 -11 -7 -17 -4 -6 4 -6 -2 1 -15 7 -11 17 -21 24
-21 8 0 7 4 -3 10 -8 5 -11 12 -7 16 3 4 14 1 23 -7 16 -13 16 -12 5 9 -13 25
-17 27 -26 12z"/>
<path d="M9295 5260 c-3 -6 1 -7 9 -4 18 7 21 14 7 14 -6 0 -13 -4 -16 -10z"/>
<path d="M5530 5246 c0 -8 -9 -18 -21 -21 -11 -4 -18 -9 -16 -12 3 -2 14 0 26
6 13 7 22 8 26 1 3 -5 2 -10 -3 -10 -5 0 -9 -6 -9 -14 0 -8 6 -12 14 -9 7 3
10 9 7 14 -3 5 1 9 8 9 10 0 10 2 -1 9 -9 6 -10 10 -2 12 6 2 2 10 -9 17 -17
10 -20 10 -20 -2z"/>
<path d="M9099 5229 c-6 -31 -6 -40 2 -45 5 -3 9 -2 8 3 -3 20 2 27 11 13 5
-8 10 -10 10 -4 0 11 -29 41 -31 33z"/>
<path d="M5633 5149 c-13 -5 -23 -11 -23 -15 0 -3 7 -3 15 0 10 4 19 -2 26
-17 8 -19 9 -18 4 8 -5 24 -4 28 6 18 7 -7 20 -13 28 -13 12 0 12 3 3 12 -15
15 -32 17 -59 7z"/>
<path d="M5693 5123 c-12 -13 -18 -23 -13 -23 5 0 11 4 15 10 3 5 12 7 20 4 8
-4 12 -11 8 -17 -3 -6 -1 -7 6 -3 9 6 9 11 -1 23 -7 9 -11 18 -10 20 2 3 2 6
0 7 -1 1 -13 -8 -25 -21z"/>
<path d="M8979 5148 c-6 -21 -5 -37 2 -32 5 3 7 9 4 14 -3 4 1 11 7 13 10 4
10 6 1 6 -7 1 -13 0 -14 -1z"/>
<path d="M5736 5132 c-3 -6 -2 -13 4 -17 5 -3 8 -19 6 -35 -2 -19 1 -27 9 -24
14 6 13 42 -2 68 -6 11 -13 14 -17 8z"/>
<path d="M5700 5094 c0 -13 18 -39 24 -34 2 3 -2 14 -10 24 -8 11 -14 16 -14
10z"/>
<path d="M8815 5080 c-3 -6 1 -7 9 -4 18 7 21 14 7 14 -6 0 -13 -4 -16 -10z"/>
<path d="M5866 5073 c-11 -11 -7 -20 9 -20 8 0 15 4 15 8 0 11 -16 20 -24 12z"/>
<path d="M5945 5009 c-10 -15 -1 -21 35 -25 16 -2 30 1 30 7 0 6 -4 8 -9 5 -5
-3 -14 1 -21 9 -15 18 -26 19 -35 4z m30 -9 c3 -5 2 -10 -4 -10 -5 0 -13 5
-16 10 -3 6 -2 10 4 10 5 0 13 -4 16 -10z"/>
<path d="M8187 4972 c-12 -13 -15 -22 -8 -27 6 -3 11 -3 11 1 0 4 9 -1 19 -10
19 -18 47 -14 36 5 -4 5 -1 9 5 9 8 0 8 6 0 21 -9 15 -15 18 -25 9 -9 -8 -14
-8 -17 0 -2 7 -11 4 -21 -8z m49 -17 c0 -14 -3 -25 -7 -25 -11 0 -32 30 -25
37 3 3 6 0 6 -8 1 -10 3 -9 11 4 13 23 15 22 15 -8z"/>
<path d="M8490 4979 c0 -5 5 -7 10 -4 6 3 10 8 10 11 0 2 -4 4 -10 4 -5 0 -10
-5 -10 -11z"/>
<path d="M5970 4960 c0 -5 5 -10 10 -10 6 0 10 5 10 10 0 6 -4 10 -10 10 -5 0
-10 -4 -10 -10z"/>
<path d="M8084 4952 c3 -5 1 -12 -6 -14 -8 -3 -9 -6 -1 -11 6 -4 13 0 17 8 3
8 0 17 -6 21 -6 4 -8 3 -4 -4z"/>
<path d="M6030 4946 c0 -2 9 -6 20 -9 11 -3 18 -1 14 4 -5 9 -34 13 -34 5z"/>
<path d="M6229 4929 c-13 -11 -18 -18 -11 -14 6 3 12 2 12 -4 0 -6 7 -8 15 -5
21 8 19 25 -2 18 -15 -5 -15 -4 -3 5 10 7 19 5 31 -7 9 -9 15 -20 13 -23 -2
-3 3 -6 11 -6 8 0 12 4 9 9 -3 4 2 8 10 8 10 0 13 -6 10 -17 -4 -14 -3 -15 4
-5 5 8 12 13 16 13 7 -1 15 0 31 4 6 1 16 3 23 3 6 1 12 7 12 13 0 5 -4 8 -8
5 -4 -2 -14 -1 -22 4 -10 6 -21 3 -32 -7 -13 -11 -18 -12 -18 -3 0 6 -6 10
-13 7 -7 -3 -21 1 -32 9 -25 18 -28 18 -56 -7z m147 -11 c4 -7 4 -10 -1 -6 -4
4 -15 2 -24 -5 -14 -11 -14 -10 -2 6 16 20 18 21 27 5z"/>
<path d="M6091 4927 c-8 -10 -7 -14 2 -14 8 0 14 6 14 14 0 7 -1 13 -2 13 -2
0 -8 -6 -14 -13z"/>
<path d="M8175 4920 c-3 -5 -1 -10 4 -10 6 0 11 5 11 10 0 6 -2 10 -4 10 -3 0
-8 -4 -11 -10z"/>
<path d="M8080 4900 c-9 -6 -10 -10 -3 -10 6 0 15 5 18 10 8 12 4 12 -15 0z"/>
<path d="M6255 4889 c-4 -6 -14 -8 -24 -4 -13 5 -14 4 -3 -6 10 -11 15 -10 29
4 10 9 14 17 11 17 -4 0 -10 -5 -13 -11z"/>
<path d="M6335 4860 c3 -5 8 -10 11 -10 2 0 4 5 4 10 0 6 -5 10 -11 10 -5 0
-7 -4 -4 -10z"/>
</g>
</svg>
