<?xml version="1.0" standalone="no"?>
<!DOCTYPE svg PUBLIC "-//W3C//DTD SVG 20010904//EN"
 "http://www.w3.org/TR/2001/REC-SVG-20010904/DTD/svg10.dtd">
<svg version="1.0" xmlns="http://www.w3.org/2000/svg"
 width="620.000000pt" height="620.000000pt" viewBox="0 0 620.000000 620.000000"
 preserveAspectRatio="xMidYMid meet">
<metadata>
Created by potrace 1.14, written by Peter Selinger 2001-2017
</metadata>
<g transform="translate(0.000000,620.000000) scale(0.100000,-0.100000)"
fill="#000000" stroke="none">
<path d="M929 5240 c-2 -14 -6 -29 -9 -32 -1 -2 -3 -16 -5 -33 -2 -16 -6 -43
-9 -60 -4 -16 -9 -48 -12 -70 -5 -45 -12 -80 -14 -80 -1 0 -3 -16 -5 -35 -8
-76 -10 -85 -20 -92 -6 -5 -5 -8 3 -8 9 0 10 -5 4 -17 -5 -10 -8 -28 -7 -40 1
-13 -1 -23 -5 -23 -4 0 -7 -6 -7 -12 -1 -7 -4 -35 -8 -63 -4 -27 -8 -59 -9
-70 -1 -11 -5 -25 -8 -31 -4 -6 -5 -23 -2 -37 2 -15 1 -27 -4 -27 -4 0 -8 -10
-9 -22 0 -13 -4 -43 -8 -68 -4 -25 -7 -53 -7 -62 0 -10 -3 -18 -7 -18 -4 0 -7
-10 -6 -22 1 -13 -2 -36 -6 -52 -9 -32 6 -53 27 -36 6 6 13 8 15 5 3 -2 36 7
74 21 39 14 77 27 85 28 8 2 44 13 79 25 35 12 66 19 69 16 2 -2 11 2 19 10 8
8 25 15 37 15 12 0 26 3 30 8 4 4 12 8 17 8 5 1 11 3 14 4 3 1 8 3 13 4 4 2
27 8 52 16 25 7 48 13 53 12 4 -1 7 2 7 7 0 6 9 8 20 6 11 -2 20 0 20 4 0 5
15 12 33 16 17 4 34 9 37 10 31 11 97 28 103 27 4 -1 7 3 7 8 0 5 3 9 8 8 4
-1 25 4 47 10 22 6 43 12 47 12 4 0 28 9 53 20 25 11 45 17 45 13 0 -3 6 0 14
6 8 6 18 11 22 10 5 -1 22 3 37 9 16 7 35 12 43 12 8 0 14 4 14 9 0 6 9 8 20
6 11 -2 20 0 20 6 0 5 3 8 8 7 19 -5 50 14 48 30 -2 9 1 32 5 52 4 19 11 55
14 80 8 50 13 75 15 75 1 0 3 20 5 45 2 25 7 56 10 70 3 14 8 43 11 64 2 22 9
43 15 47 8 4 8 8 0 13 -6 4 -7 15 -2 29 5 12 7 30 6 40 -2 9 0 17 4 17 4 0 7
18 8 40 l1 40 -584 0 c-382 0 -584 -3 -585 -10z"/>
<path d="M4730 5239 c0 -5 -3 -8 -7 -6 -5 3 -8 -14 -9 -36 0 -23 -4 -60 -8
-82 -5 -22 -10 -53 -11 -70 -2 -16 -6 -41 -10 -55 -3 -14 -8 -43 -11 -65 -7
-50 -11 -75 -24 -150 -6 -33 -13 -80 -16 -105 -2 -25 -7 -56 -10 -70 -6 -31
-13 -75 -19 -115 -2 -16 -6 -52 -10 -80 -4 -27 -9 -57 -12 -65 -8 -21 -13 -57
-17 -116 -2 -28 -6 -55 -9 -60 -3 -5 -8 -27 -11 -49 -4 -22 -9 -53 -12 -70 -3
-16 -7 -48 -9 -70 -1 -22 -6 -48 -10 -58 -4 -10 -5 -21 -2 -24 4 -3 2 -13 -2
-22 -8 -15 -22 -98 -24 -148 -1 -13 -3 -23 -7 -23 -3 0 -6 -12 -6 -27 -2 -29
-5 -52 -24 -168 -7 -38 -15 -86 -18 -105 -3 -19 -6 -45 -6 -57 -1 -13 -5 -23
-10 -23 -5 0 -3 -7 4 -15 9 -10 9 -15 1 -15 -6 0 -11 -13 -11 -28 0 -16 -3
-32 -7 -35 -4 -4 -6 -25 -6 -47 0 -22 -2 -40 -6 -40 -3 0 -7 -10 -7 -22 -2
-29 -11 -103 -19 -148 -4 -19 -8 -48 -11 -65 -6 -38 -12 -70 -14 -70 -1 0 -3
-16 -5 -35 -5 -39 -9 -58 -18 -80 -3 -8 -15 -46 -26 -85 -27 -92 -81 -200
-131 -258 -14 -16 -24 -33 -22 -38 1 -5 -1 -8 -6 -7 -4 2 -24 -13 -44 -34 -20
-20 -39 -33 -42 -30 -3 3 -6 -2 -6 -12 0 -9 -4 -15 -9 -11 -5 3 -16 -2 -25
-10 -33 -34 -203 -110 -293 -132 -7 -2 -21 -5 -30 -7 -10 -3 -18 -5 -18 -6 0
-2 -54 -11 -72 -12 -7 -1 -13 -4 -13 -7 0 -3 -17 -7 -37 -8 -21 -1 -54 -4 -73
-7 -19 -2 -68 -7 -109 -10 -40 -2 -76 -7 -79 -10 -3 -3 -11 -1 -19 5 -7 6 -13
8 -13 3 0 -5 -29 -9 -65 -10 -44 -1 -62 2 -58 10 4 7 1 7 -8 -1 -19 -16 -239
-15 -239 1 0 8 -2 8 -8 0 -8 -12 -76 -13 -87 -2 -4 4 -15 4 -24 0 -13 -7 -76
-8 -76 -2 0 1 -34 3 -75 5 -41 2 -75 4 -75 5 0 1 -25 3 -55 5 -30 1 -55 3 -55
4 0 1 -12 4 -28 6 -19 3 -25 0 -20 -8 5 -9 3 -9 -8 -1 -8 7 -35 14 -61 17 -26
3 -55 10 -65 15 -10 5 -24 7 -31 5 -7 -3 -20 -2 -30 3 -9 4 -23 8 -30 10 -57
11 -112 29 -112 36 0 4 -7 5 -15 2 -8 -4 -15 -1 -15 5 0 6 -3 10 -7 9 -12 -3
-93 36 -93 44 0 5 -6 8 -14 8 -8 0 -21 9 -29 20 -8 11 -17 17 -20 14 -3 -4
-14 8 -25 25 -10 17 -21 29 -24 26 -6 -6 -67 112 -75 145 -3 14 -6 37 -8 51
-1 14 -5 30 -8 36 -7 11 -1 258 8 313 3 19 6 52 8 72 1 21 7 38 12 38 6 0 3 5
-5 10 -10 6 -11 10 -2 10 7 0 12 14 12 35 0 21 5 35 13 35 9 0 8 3 -2 9 -9 6
-10 11 -2 15 6 4 9 11 6 16 -3 5 -1 11 5 15 7 4 7 12 0 26 -7 12 -7 19 -1 19
5 0 8 9 6 20 -2 11 2 20 8 20 8 0 8 3 -2 9 -9 6 -10 11 -2 15 26 16 -2 25 -35
11 -19 -8 -42 -11 -51 -8 -10 4 -14 2 -10 -4 4 -7 -7 -13 -28 -17 -19 -4 -35
-11 -35 -17 0 -6 -5 -7 -10 -4 -6 3 -16 3 -23 -2 -6 -4 -21 -9 -32 -10 -18 -3
-36 -9 -90 -29 -11 -4 -24 -8 -30 -9 -5 -1 -32 -10 -60 -20 -27 -9 -58 -18
-69 -21 -10 -2 -25 -9 -34 -16 -10 -9 -13 -9 -9 -1 4 7 -6 5 -25 -5 -18 -9
-40 -17 -48 -18 -23 -4 -42 -10 -73 -23 -16 -6 -33 -9 -38 -5 -5 3 -9 1 -9 -3
0 -8 -86 -36 -93 -30 -2 1 -10 -3 -18 -9 -8 -6 -27 -15 -44 -19 -16 -5 -32 -9
-35 -10 -49 -15 -96 -29 -100 -30 -3 -1 -13 -5 -22 -9 -9 -4 -22 -9 -30 -10
-7 -2 -21 -6 -30 -10 -9 -4 -22 -9 -30 -10 -7 -1 -37 -10 -65 -20 -38 -13 -53
-23 -54 -37 -2 -27 -6 -59 -8 -61 -1 -2 -4 -28 -6 -58 -2 -30 -6 -65 -9 -77
-2 -13 0 -25 5 -28 5 -4 6 -12 2 -18 -4 -7 -8 -27 -10 -45 -2 -24 1 -31 10
-26 9 6 9 5 0 -7 -7 -9 -11 -39 -8 -79 2 -36 4 -65 5 -65 1 0 3 -31 6 -70 5
-88 10 -126 17 -145 3 -8 8 -31 11 -50 9 -55 59 -204 70 -212 6 -4 8 -8 3 -8
-10 0 32 -83 47 -92 6 -4 7 -8 3 -8 -11 0 34 -80 45 -80 4 0 8 -6 8 -13 0 -7
9 -23 20 -35 11 -12 20 -24 20 -27 0 -8 39 -52 106 -119 72 -71 101 -96 167
-138 26 -17 47 -35 47 -40 0 -4 9 -8 20 -8 11 0 20 -4 20 -8 0 -5 36 -26 80
-48 44 -21 80 -42 80 -46 0 -4 9 -5 19 -3 11 2 22 -3 25 -12 4 -9 9 -13 12
-11 3 3 43 -9 90 -28 46 -18 94 -34 107 -36 12 -2 24 -5 27 -8 8 -8 162 -48
215 -55 11 -2 20 -4 20 -5 0 -5 91 -21 118 -21 9 0 16 -3 13 -7 -2 -4 12 -7
32 -6 21 0 42 -2 47 -5 6 -3 21 -6 35 -7 14 -1 43 -5 65 -8 44 -6 158 -18 190
-20 11 -1 23 -5 27 -11 5 -6 8 -5 8 4 0 11 3 11 15 1 11 -9 15 -9 15 -1 0 7 5
9 13 4 6 -4 37 -9 67 -10 120 -6 700 -9 700 -4 0 3 30 6 68 7 37 0 78 4 91 8
18 6 22 5 16 -4 -6 -10 -4 -11 6 -4 8 5 25 10 39 11 32 3 79 9 155 18 33 5 68
8 78 9 9 0 17 3 17 7 0 3 16 5 35 4 19 -1 35 2 35 5 0 4 6 7 13 7 6 0 30 4 52
8 22 4 46 7 53 8 6 0 12 4 12 8 0 4 8 6 18 4 9 -1 22 0 27 4 6 3 17 6 25 6 8
0 21 4 28 9 7 4 16 5 19 2 3 -3 11 -2 17 3 7 6 25 13 41 16 17 3 35 7 40 9 11
3 11 3 97 34 31 11 59 18 62 15 3 -4 6 -1 6 6 0 8 7 11 15 7 8 -3 15 -2 15 2
0 4 29 18 65 31 36 14 65 29 65 35 0 5 3 7 6 3 4 -3 26 5 50 18 24 14 44 22
44 19 0 -2 6 0 13 6 16 14 144 90 152 90 3 0 11 4 18 10 48 40 118 90 124 90
4 0 19 11 33 25 61 60 101 95 111 95 5 0 8 4 4 9 -3 5 4 13 16 16 11 4 19 9
16 11 -2 3 20 29 50 59 29 30 51 55 48 55 -3 0 5 11 19 24 15 13 26 26 26 30
0 6 23 35 48 61 6 8 12 18 12 24 0 6 5 11 11 11 5 0 8 4 5 9 -3 5 1 11 9 15 8
3 15 10 15 16 0 6 13 30 28 53 16 23 44 74 63 112 19 39 38 73 42 76 5 3 8 8
7 10 -1 2 6 22 15 44 10 22 19 43 20 48 2 4 4 10 5 15 1 4 2 10 1 15 0 4 4 7
11 7 6 0 9 3 5 6 -3 4 0 19 9 35 8 16 12 29 8 29 -4 0 -1 7 6 15 7 8 9 15 5
15 -4 0 -2 7 5 15 6 8 9 19 5 25 -3 5 -2 10 3 10 6 0 13 17 18 38 9 42 10 50
14 57 1 3 3 8 4 13 1 4 4 12 7 17 3 6 4 20 3 33 0 12 2 22 6 22 4 0 10 19 14
43 12 86 18 112 28 131 8 14 7 17 -4 10 -11 -6 -11 -5 0 8 7 9 12 20 11 24 -1
5 0 11 1 14 1 3 3 19 5 35 3 30 13 96 18 125 1 8 5 20 8 25 2 6 4 27 4 48 -1
20 2 37 6 37 3 0 6 8 6 18 -2 43 16 131 25 126 6 -4 6 2 -1 13 -6 11 -7 23 -4
27 4 4 8 17 9 29 1 12 4 39 8 60 3 20 9 54 12 75 10 68 13 87 20 122 3 19 8
49 9 65 1 17 3 30 4 30 3 0 8 29 15 80 10 78 17 120 22 145 3 14 7 39 8 55 2
17 6 39 9 50 3 11 9 47 12 80 4 33 10 62 13 65 4 3 8 19 9 35 4 76 8 115 14
115 3 0 5 14 4 30 -1 17 2 33 6 36 4 2 6 13 4 24 -2 11 0 22 4 24 4 3 6 19 5
35 -1 17 1 31 5 31 4 0 7 16 6 35 -1 19 1 35 5 35 3 0 6 15 5 33 -1 17 1 37 4
42 6 10 7 15 16 80 3 22 7 51 10 65 7 37 17 101 21 135 5 46 14 98 21 115 3 8
6 31 8 50 2 31 10 85 21 143 3 16 -31 17 -587 17 -408 0 -589 -3 -589 -11z"/>
<path d="M1888 4136 c-21 -7 -40 -11 -43 -8 -3 3 -5 1 -5 -5 0 -5 -6 -10 -12
-11 -21 -1 -51 -9 -83 -23 -16 -7 -37 -13 -45 -14 -8 -1 -28 -7 -43 -13 -16
-7 -34 -12 -42 -12 -8 0 -17 -5 -20 -10 -4 -6 -10 -8 -15 -5 -5 3 -11 1 -15
-5 -4 -6 -10 -8 -15 -5 -4 3 -29 -4 -54 -15 -25 -10 -46 -17 -46 -14 0 2 -13
-2 -30 -11 -16 -8 -32 -15 -35 -15 -7 0 -16 -2 -75 -20 -25 -7 -48 -13 -52
-12 -5 1 -8 -3 -8 -10 0 -6 -3 -9 -6 -5 -5 5 -56 -10 -134 -40 -8 -3 -25 -8
-38 -10 -12 -2 -35 -9 -50 -15 -15 -6 -33 -13 -39 -15 -7 -1 -19 -5 -25 -6 -7
-2 -26 -9 -41 -15 -16 -7 -35 -12 -43 -12 -8 0 -14 -5 -14 -11 0 -5 -4 -8 -10
-4 -5 3 -25 -1 -45 -9 -19 -8 -38 -15 -40 -16 -47 -6 -68 -16 -75 -34 -4 -12
-6 -24 -3 -28 2 -5 1 -8 -4 -8 -4 0 -8 -15 -7 -32 0 -18 -2 -37 -5 -43 -6 -11
-7 -18 -16 -89 -4 -27 -9 -58 -12 -70 -3 -12 -6 -40 -6 -63 -1 -23 -5 -39 -9
-37 -4 3 -7 -13 -5 -35 1 -27 5 -36 13 -30 6 5 19 10 30 12 10 2 33 9 49 16
17 7 38 13 48 14 9 1 17 4 17 7 0 4 6 7 13 8 14 1 51 10 55 12 2 3 2 3 47 15
17 4 35 11 40 15 6 4 33 13 60 20 28 7 55 17 60 21 6 4 15 8 20 8 28 4 85 23
90 30 3 5 14 7 25 4 12 -3 20 0 20 7 0 7 7 10 15 7 8 -4 17 -2 21 4 3 6 12 8
20 5 8 -3 14 -1 14 5 0 6 4 8 8 5 5 -3 20 1 35 9 14 7 41 17 59 21 18 4 38 9
43 10 13 4 96 33 115 41 8 3 20 7 27 9 16 3 84 24 103 31 20 8 21 8 55 18 17
4 35 10 40 14 11 6 30 11 57 15 24 3 31 12 34 44 3 28 10 70 20 111 3 13 7 45
10 69 2 25 8 50 12 56 4 6 7 32 7 58 0 27 3 48 7 48 4 0 6 12 4 28 -1 15 2 33
7 40 11 15 12 15 -35 -2z"/>
</g>
</svg>
